<svg width="349" height="413" viewBox="0 0 349 413" fill="none" xmlns="http://www.w3.org/2000/svg">
<g opacity="0.7">
<path d="M131.592 28.0648L132.413 28.8882L86.4509 74.895L85.6294 74.0715L131.592 28.0648Z" fill="#105EFB"/>
<path d="M92.1141 97.4817C92.1199 96.3232 91.8966 95.1749 91.457 94.1033C91.0174 93.0316 90.3703 92.0578 89.5529 91.238L21.2868 22.8777L20.4641 23.7018L88.7205 92.0622C90.1477 93.5036 90.9485 95.4516 90.9485 97.4817C90.9485 99.5119 90.1477 101.46 88.7205 102.901L51.7461 139.937L52.5689 140.758L89.5401 103.725C90.3597 102.907 91.0092 101.933 91.4511 100.862C91.8929 99.79 92.1183 98.6412 92.1141 97.4817Z" fill="#105EFB"/>
<path d="M114.839 9.96215L188.909 84.1552L188.087 84.9783L114.017 10.7853L114.839 9.96215Z" fill="#105EFB"/>
<path d="M220.595 128.979L219.775 128.155L178.757 169.241C177.557 170.439 175.932 171.111 174.238 171.111C172.544 171.111 170.919 170.439 169.719 169.241L112.025 111.451C110.607 110.034 108.687 109.238 106.684 109.238C104.682 109.238 102.761 110.034 101.344 111.451L43.1534 169.732L43.9762 170.556L102.164 112.272C103.364 111.074 104.989 110.402 106.683 110.402C108.377 110.402 110.002 111.074 111.202 112.272L168.9 170.062C170.317 171.479 172.237 172.275 174.24 172.275C176.242 172.275 178.163 171.479 179.58 170.062L220.595 128.979Z" fill="#105EFB"/>
<path d="M41.0819 135.355L87.1245 181.49L86.3026 182.313L40.26 136.178L41.0819 135.355Z" fill="#105EFB"/>
<path d="M247.052 359.503L188.602 300.956C187.184 299.541 185.264 298.746 183.262 298.746C181.26 298.746 179.34 299.541 177.922 300.956L141.834 337.104C140.634 338.301 139.009 338.973 137.315 338.973C135.621 338.973 133.996 338.301 132.796 337.104L75.1013 279.313C72.2872 276.494 66.7774 274.224 62.7851 274.246L32.409 274.426V275.59L62.7851 275.41C66.4956 275.388 71.6501 277.508 74.2722 280.134L131.973 337.928C133.393 339.341 135.313 340.134 137.315 340.134C139.317 340.134 141.237 339.341 142.657 337.928L178.744 301.78C179.944 300.584 181.569 299.912 183.262 299.912C184.955 299.912 186.579 300.584 187.779 301.78L246.229 360.328L247.052 359.503Z" fill="#105EFB"/>
<path d="M151.182 310.916L150.359 310.092L104.19 356.335C102.827 357.698 100.98 358.464 99.0534 358.464C97.1272 358.464 95.2797 357.698 93.9165 356.335L23.4253 285.73L22.6025 286.551L93.0938 357.143C94.6758 358.724 96.819 359.611 99.0534 359.611C101.288 359.611 103.431 358.724 105.013 357.143L151.182 310.916Z" fill="#105EFB"/>
<path d="M220.297 126.314C220.296 126.665 220.4 127.007 220.594 127.299C220.787 127.591 221.063 127.818 221.386 127.952C221.71 128.087 222.065 128.122 222.408 128.054C222.751 127.986 223.067 127.817 223.314 127.569C223.561 127.322 223.73 127.006 223.798 126.662C223.866 126.318 223.83 125.962 223.696 125.639C223.562 125.315 223.335 125.039 223.044 124.844C222.753 124.65 222.411 124.547 222.061 124.547C221.593 124.548 221.145 124.735 220.815 125.066C220.484 125.397 220.298 125.846 220.297 126.314ZM218.85 126.314C218.85 125.68 219.038 125.06 219.389 124.533C219.741 124.005 220.241 123.594 220.826 123.352C221.411 123.109 222.055 123.045 222.676 123.169C223.297 123.293 223.868 123.598 224.315 124.047C224.763 124.495 225.068 125.067 225.191 125.689C225.315 126.311 225.252 126.956 225.009 127.542C224.767 128.128 224.357 128.628 223.83 128.981C223.304 129.333 222.685 129.521 222.051 129.521C221.202 129.521 220.388 129.183 219.788 128.582C219.187 127.981 218.85 127.165 218.85 126.314Z" fill="#105EFB"/>
<path d="M188.522 86.5079C188.522 86.8574 188.625 87.199 188.819 87.4896C189.013 87.7801 189.289 88.0066 189.611 88.1403C189.933 88.2741 190.288 88.3091 190.63 88.2409C190.972 88.1727 191.287 88.0044 191.533 87.7573C191.78 87.5102 191.948 87.1954 192.016 86.8526C192.084 86.5098 192.049 86.1546 191.916 85.8317C191.782 85.5088 191.556 85.2328 191.266 85.0387C190.976 84.8445 190.635 84.7409 190.286 84.7409C189.818 84.7417 189.37 84.9282 189.04 85.2594C188.709 85.5906 188.523 86.0395 188.522 86.5079ZM187.072 86.5079C187.072 85.8736 187.26 85.2536 187.611 84.7262C187.963 84.1989 188.463 83.7879 189.048 83.5451C189.633 83.3024 190.277 83.2389 190.898 83.3626C191.519 83.4864 192.089 83.7918 192.537 84.2403C192.985 84.6888 193.29 85.2602 193.413 85.8823C193.537 86.5043 193.473 87.1491 193.231 87.7351C192.989 88.3211 192.578 88.8219 192.052 89.1743C191.525 89.5266 190.906 89.7147 190.273 89.7147C189.424 89.7147 188.61 89.3769 188.009 88.7755C187.409 88.1741 187.072 87.3584 187.072 86.5079Z" fill="#105EFB"/>
<path d="M183.377 234.273L124.696 175.485C123.278 174.071 121.358 173.278 119.358 173.278C117.357 173.278 115.437 174.071 114.019 175.485L77.9539 211.629C76.7534 212.83 75.1264 213.504 73.4301 213.504C71.7338 213.504 70.1069 212.83 68.9064 211.629L0.819519 143.644L-4.57764e-05 144.472L68.0804 212.466C69.4995 213.882 71.4208 214.677 73.4237 214.677C75.4267 214.677 77.348 213.882 78.7671 212.466L114.855 176.306C116.055 175.109 117.68 174.436 119.374 174.436C121.068 174.436 122.692 175.109 123.893 176.306L182.554 235.11L183.377 234.273Z" fill="#105EFB"/>
<path d="M183.191 236.781C183.191 237.131 183.295 237.473 183.489 237.764C183.683 238.055 183.959 238.282 184.282 238.416C184.605 238.55 184.96 238.585 185.303 238.517C185.646 238.448 185.961 238.28 186.208 238.032C186.455 237.785 186.624 237.469 186.692 237.126C186.76 236.783 186.725 236.427 186.591 236.103C186.457 235.78 186.231 235.503 185.94 235.309C185.65 235.114 185.308 235.01 184.959 235.01C184.49 235.01 184.04 235.197 183.709 235.529C183.377 235.861 183.191 236.311 183.191 236.781ZM181.744 236.781C181.744 236.146 181.932 235.526 182.284 234.999C182.636 234.472 183.136 234.061 183.721 233.818C184.306 233.575 184.949 233.512 185.57 233.635C186.191 233.759 186.762 234.065 187.21 234.513C187.657 234.961 187.962 235.533 188.086 236.155C188.209 236.777 188.146 237.422 187.904 238.008C187.661 238.594 187.251 239.095 186.724 239.447C186.198 239.799 185.579 239.987 184.946 239.987C184.097 239.987 183.282 239.65 182.682 239.048C182.081 238.447 181.744 237.631 181.744 236.781Z" fill="#105EFB"/>
<path d="M188.01 253.575C188.009 253.925 188.112 254.268 188.306 254.559C188.5 254.851 188.775 255.078 189.098 255.213C189.421 255.347 189.777 255.383 190.12 255.315C190.463 255.247 190.778 255.078 191.025 254.831C191.273 254.583 191.441 254.268 191.51 253.925C191.578 253.581 191.543 253.225 191.41 252.901C191.276 252.578 191.05 252.301 190.759 252.106C190.468 251.912 190.126 251.808 189.777 251.808C189.309 251.809 188.86 251.995 188.529 252.326C188.198 252.657 188.011 253.106 188.01 253.575ZM186.562 253.575C186.562 252.941 186.75 252.321 187.102 251.793C187.454 251.266 187.954 250.855 188.539 250.612C189.124 250.369 189.767 250.306 190.389 250.43C191.01 250.553 191.58 250.859 192.028 251.307C192.475 251.756 192.78 252.327 192.904 252.949C193.027 253.571 192.964 254.216 192.722 254.802C192.479 255.388 192.069 255.889 191.543 256.241C191.016 256.594 190.397 256.782 189.764 256.782C189.344 256.782 188.927 256.699 188.539 256.538C188.15 256.376 187.797 256.14 187.5 255.842C187.203 255.545 186.967 255.191 186.806 254.802C186.645 254.413 186.562 253.996 186.562 253.575Z" fill="#105EFB"/>
<path d="M192.447 181.321C192.448 181.671 192.552 182.012 192.746 182.302C192.94 182.592 193.216 182.818 193.538 182.952C193.86 183.085 194.215 183.119 194.557 183.051C194.899 182.982 195.213 182.814 195.459 182.567C195.706 182.319 195.873 182.004 195.941 181.662C196.009 181.319 195.974 180.964 195.84 180.641C195.707 180.319 195.481 180.043 195.191 179.849C194.901 179.655 194.56 179.551 194.211 179.551C193.979 179.551 193.749 179.597 193.535 179.686C193.321 179.775 193.126 179.906 192.962 180.07C192.799 180.234 192.669 180.43 192.58 180.644C192.492 180.859 192.446 181.089 192.447 181.321ZM191 181.321C191 180.687 191.188 180.067 191.539 179.54C191.891 179.012 192.391 178.601 192.976 178.359C193.561 178.116 194.205 178.053 194.826 178.176C195.447 178.3 196.017 178.605 196.465 179.054C196.913 179.502 197.218 180.074 197.341 180.696C197.465 181.318 197.401 181.963 197.159 182.549C196.917 183.135 196.506 183.635 195.98 183.988C195.454 184.34 194.835 184.528 194.201 184.528C193.352 184.528 192.538 184.19 191.938 183.589C191.337 182.988 191 182.172 191 181.321Z" fill="#105EFB"/>
<path d="M87.219 183.964C87.219 184.314 87.3227 184.656 87.5169 184.947C87.7111 185.238 87.9871 185.465 88.31 185.599C88.6329 185.733 88.9883 185.768 89.3311 185.7C89.6739 185.632 89.9888 185.463 90.236 185.216C90.4831 184.968 90.6514 184.653 90.7196 184.309C90.7878 183.966 90.7528 183.61 90.619 183.287C90.4853 182.963 90.2588 182.687 89.9681 182.492C89.6775 182.298 89.3358 182.194 88.9863 182.194C88.5176 182.194 88.0681 182.38 87.7367 182.712C87.4053 183.044 87.219 183.494 87.219 183.964ZM85.772 183.964C85.772 183.33 85.9598 182.71 86.3115 182.182C86.6633 181.655 87.1633 181.244 87.7483 181.001C88.3333 180.758 88.977 180.695 89.5981 180.819C90.2191 180.942 90.7896 181.248 91.2373 181.696C91.6851 182.145 91.99 182.716 92.1135 183.338C92.2371 183.96 92.1737 184.605 91.9313 185.191C91.689 185.777 91.2787 186.278 90.7522 186.63C90.2257 186.983 89.6067 187.171 88.9735 187.171C88.1244 187.171 87.3101 186.833 86.7097 186.232C86.1093 185.63 85.772 184.814 85.772 183.964Z" fill="#105EFB"/>
<path d="M264.142 317.625V317.606C264.143 316.614 263.947 315.631 263.566 314.716C263.184 313.8 262.625 312.97 261.92 312.273L248.886 299.353L248.07 300.18L261.103 313.1C262.3 314.295 262.975 315.917 262.979 317.609C262.983 319.302 262.317 320.927 261.126 322.128L202.938 380.412L203.758 381.236L261.945 322.949C262.645 322.251 263.2 321.422 263.577 320.508C263.954 319.594 264.146 318.614 264.142 317.625Z" fill="#105EFB"/>
<path d="M244.539 298.638C244.539 298.988 244.642 299.33 244.835 299.622C245.029 299.913 245.305 300.141 245.628 300.275C245.951 300.41 246.306 300.445 246.649 300.377C246.992 300.309 247.307 300.141 247.555 299.894C247.802 299.646 247.971 299.331 248.039 298.987C248.108 298.644 248.073 298.288 247.939 297.964C247.806 297.64 247.579 297.364 247.289 297.169C246.998 296.974 246.656 296.871 246.306 296.871C245.838 296.871 245.39 297.058 245.059 297.389C244.728 297.72 244.541 298.169 244.539 298.638ZM243.092 298.638C243.092 298.003 243.28 297.383 243.632 296.856C243.983 296.329 244.483 295.917 245.068 295.675C245.653 295.432 246.297 295.369 246.918 295.492C247.539 295.616 248.11 295.921 248.557 296.37C249.005 296.818 249.31 297.39 249.434 298.012C249.557 298.634 249.494 299.279 249.251 299.865C249.009 300.451 248.599 300.952 248.072 301.304C247.546 301.656 246.927 301.844 246.294 301.844C245.444 301.844 244.63 301.506 244.03 300.905C243.429 300.304 243.092 299.488 243.092 298.638Z" fill="#105EFB"/>
<path d="M202.938 348.998V348.978C202.937 347.986 202.738 347.003 202.353 346.088C201.968 345.173 201.405 344.344 200.697 343.649L187.664 330.725L186.847 331.552L199.881 344.476C201.077 345.67 201.752 347.291 201.756 348.983C201.76 350.675 201.094 352.3 199.903 353.5L141.715 411.785L142.535 412.609L200.739 354.324C201.439 353.626 201.994 352.796 202.371 351.882C202.749 350.967 202.942 349.987 202.938 348.998Z" fill="#105EFB"/>
<path d="M183.332 330.01C183.331 330.36 183.435 330.703 183.628 330.994C183.822 331.286 184.098 331.513 184.421 331.648C184.744 331.782 185.099 331.818 185.442 331.75C185.785 331.682 186.1 331.514 186.348 331.266C186.595 331.019 186.764 330.703 186.832 330.36C186.901 330.016 186.866 329.66 186.732 329.337C186.599 329.013 186.372 328.736 186.082 328.542C185.791 328.347 185.449 328.243 185.099 328.243C184.631 328.244 184.183 328.43 183.852 328.761C183.521 329.092 183.334 329.541 183.332 330.01ZM181.885 330.01C181.885 329.376 182.073 328.756 182.425 328.228C182.776 327.701 183.276 327.29 183.861 327.047C184.446 326.805 185.09 326.741 185.711 326.865C186.332 326.989 186.903 327.294 187.35 327.742C187.798 328.191 188.103 328.762 188.227 329.384C188.35 330.007 188.287 330.651 188.044 331.237C187.802 331.823 187.392 332.324 186.865 332.676C186.339 333.029 185.72 333.217 185.087 333.217C184.237 333.217 183.423 332.879 182.823 332.278C182.222 331.676 181.885 330.861 181.885 330.01Z" fill="#105EFB"/>
<path d="M217.985 309.313C217.99 308.32 217.797 307.336 217.419 306.417C217.041 305.499 216.485 304.665 215.783 303.964L157.992 246.077L157.169 246.901L214.96 304.779C216.155 305.981 216.827 307.608 216.827 309.305C216.827 311.002 216.155 312.629 214.96 313.831L169.415 359.446L170.235 360.27L215.783 314.656C216.484 313.955 217.039 313.122 217.417 312.205C217.796 311.288 217.989 310.305 217.985 309.313Z" fill="#105EFB"/>
<path d="M165.897 361.636C165.897 361.986 166 362.328 166.195 362.619C166.389 362.91 166.665 363.137 166.988 363.271C167.311 363.405 167.666 363.44 168.009 363.372C168.352 363.304 168.667 363.135 168.914 362.888C169.161 362.64 169.329 362.325 169.397 361.981C169.466 361.638 169.431 361.282 169.297 360.958C169.163 360.635 168.936 360.359 168.646 360.164C168.355 359.97 168.014 359.866 167.664 359.866C167.195 359.866 166.746 360.052 166.414 360.384C166.083 360.716 165.897 361.166 165.897 361.636ZM164.45 361.636C164.45 361.002 164.637 360.382 164.989 359.854C165.341 359.327 165.841 358.916 166.426 358.673C167.011 358.43 167.655 358.367 168.276 358.491C168.897 358.614 169.467 358.92 169.915 359.368C170.363 359.817 170.668 360.388 170.791 361.01C170.915 361.632 170.851 362.277 170.609 362.863C170.367 363.449 169.956 363.95 169.43 364.302C168.903 364.655 168.284 364.843 167.651 364.843C166.802 364.843 165.988 364.505 165.387 363.903C164.787 363.302 164.45 362.486 164.45 361.636Z" fill="#105EFB"/>
<path d="M153.657 244.115C153.656 244.465 153.759 244.807 153.953 245.099C154.147 245.391 154.423 245.618 154.746 245.752C155.069 245.887 155.424 245.922 155.767 245.854C156.11 245.786 156.425 245.618 156.673 245.371C156.92 245.123 157.089 244.808 157.157 244.464C157.226 244.121 157.191 243.765 157.057 243.441C156.924 243.118 156.697 242.841 156.406 242.646C156.116 242.452 155.774 242.348 155.424 242.348C154.956 242.348 154.507 242.534 154.176 242.865C153.844 243.196 153.658 243.646 153.657 244.115ZM152.21 244.115C152.21 243.48 152.398 242.86 152.749 242.333C153.101 241.806 153.601 241.395 154.186 241.152C154.771 240.909 155.415 240.846 156.036 240.969C156.657 241.093 157.227 241.399 157.675 241.847C158.123 242.296 158.428 242.867 158.551 243.489C158.675 244.111 158.612 244.756 158.369 245.342C158.127 245.928 157.717 246.429 157.19 246.781C156.664 247.133 156.045 247.321 155.411 247.321C154.562 247.321 153.748 246.984 153.148 246.382C152.547 245.781 152.21 244.965 152.21 244.115Z" fill="#105EFB"/>
<path d="M158.174 194.005C158.176 193.012 157.981 192.029 157.601 191.112C157.221 190.196 156.662 189.364 155.959 188.665L49.6136 82.7911L48.794 83.6185L155.139 189.48C155.734 190.071 156.206 190.774 156.528 191.549C156.849 192.324 157.014 193.156 157.012 193.995C157.016 194.832 156.853 195.662 156.534 196.436C156.215 197.21 155.745 197.913 155.152 198.504L110.052 243.682L110.875 244.506L155.975 199.338C156.675 198.638 157.23 197.807 157.608 196.892C157.985 195.976 158.178 194.995 158.174 194.005Z" fill="#105EFB"/>
<path d="M106.566 246.327C106.567 246.677 106.671 247.018 106.865 247.308C107.059 247.598 107.335 247.824 107.657 247.958C107.98 248.091 108.334 248.125 108.676 248.057C109.018 247.988 109.332 247.82 109.578 247.572C109.825 247.325 109.993 247.01 110.06 246.668C110.128 246.325 110.093 245.97 109.959 245.647C109.826 245.325 109.6 245.049 109.31 244.855C109.02 244.661 108.679 244.557 108.33 244.557C108.098 244.557 107.868 244.603 107.654 244.692C107.44 244.781 107.245 244.911 107.082 245.076C106.918 245.24 106.788 245.435 106.699 245.65C106.611 245.865 106.566 246.095 106.566 246.327ZM105.116 246.327C105.116 245.693 105.303 245.073 105.655 244.546C106.007 244.018 106.507 243.607 107.092 243.365C107.677 243.122 108.321 243.058 108.942 243.182C109.563 243.306 110.133 243.611 110.581 244.06C111.029 244.508 111.334 245.08 111.457 245.702C111.581 246.324 111.517 246.969 111.275 247.555C111.033 248.141 110.622 248.641 110.096 248.994C109.569 249.346 108.95 249.534 108.317 249.534C107.468 249.534 106.654 249.196 106.053 248.595C105.453 247.994 105.116 247.178 105.116 246.327Z" fill="#105EFB"/>
<path d="M292.526 303.509L166.681 178.099C165.105 176.532 162.975 175.654 160.755 175.657C158.535 175.66 156.406 176.544 154.835 178.115L114.349 218.668L115.171 219.489L155.664 178.939C157.019 177.59 158.852 176.832 160.763 176.832C162.673 176.832 164.506 177.59 165.861 178.939L291.707 304.333L292.526 303.509Z" fill="#105EFB"/>
<path d="M140.134 269.43C140.137 268.076 139.872 266.736 139.356 265.485C138.839 264.235 138.081 263.099 137.124 262.144L93.5421 218.489L92.7193 219.313L136.305 262.968C138.009 264.686 138.965 267.009 138.965 269.431C138.965 271.853 138.009 274.176 136.305 275.895L55.8633 356.476L56.6861 357.3L137.124 276.715C138.081 275.76 138.839 274.624 139.356 273.374C139.872 272.123 140.137 270.783 140.134 269.43Z" fill="#105EFB"/>
<path d="M89.1049 217.071C89.1049 217.421 89.2084 217.762 89.4022 218.053C89.596 218.344 89.8716 218.57 90.1939 218.704C90.5162 218.838 90.8709 218.873 91.2131 218.804C91.5553 218.736 91.8697 218.568 92.1164 218.321C92.3631 218.074 92.5311 217.759 92.5991 217.416C92.6672 217.073 92.6323 216.718 92.4987 216.395C92.3652 216.072 92.1391 215.796 91.849 215.602C91.559 215.408 91.2179 215.304 90.869 215.304C90.4014 215.305 89.9532 215.492 89.6225 215.823C89.2919 216.154 89.1058 216.603 89.1049 217.071ZM87.6546 217.071C87.6546 216.437 87.8424 215.817 88.1942 215.29C88.546 214.762 89.046 214.351 89.631 214.109C90.216 213.866 90.8597 213.802 91.4807 213.926C92.1018 214.05 92.6723 214.355 93.12 214.804C93.5678 215.252 93.8727 215.824 93.9962 216.446C94.1198 217.068 94.0563 217.713 93.814 218.299C93.5717 218.884 93.1614 219.385 92.6349 219.738C92.1084 220.09 91.4894 220.278 90.8562 220.278C90.0071 220.278 89.1927 219.94 88.5923 219.339C87.9919 218.738 87.6546 217.922 87.6546 217.071Z" fill="#105EFB"/>
<path d="M110.872 221.301C110.871 221.651 110.974 221.994 111.168 222.286C111.362 222.577 111.638 222.804 111.961 222.939C112.283 223.073 112.639 223.109 112.982 223.041C113.325 222.973 113.64 222.805 113.887 222.557C114.135 222.31 114.304 221.994 114.372 221.651C114.441 221.307 114.406 220.951 114.272 220.628C114.138 220.304 113.912 220.027 113.621 219.833C113.331 219.638 112.989 219.534 112.639 219.534C112.171 219.535 111.723 219.721 111.391 220.053C111.06 220.384 110.873 220.833 110.872 221.301ZM109.425 221.301C109.425 220.667 109.612 220.047 109.964 219.52C110.316 218.992 110.816 218.581 111.401 218.338C111.986 218.096 112.63 218.032 113.251 218.156C113.872 218.28 114.442 218.585 114.89 219.034C115.338 219.482 115.643 220.054 115.766 220.676C115.89 221.298 115.826 221.942 115.584 222.528C115.342 223.114 114.931 223.615 114.405 223.968C113.878 224.32 113.259 224.508 112.626 224.508C111.777 224.508 110.963 224.17 110.362 223.569C109.762 222.967 109.425 222.152 109.425 221.301Z" fill="#105EFB"/>
<path d="M292.344 306.004C292.344 306.353 292.448 306.695 292.642 306.985C292.836 307.276 293.111 307.502 293.433 307.636C293.756 307.77 294.11 307.805 294.453 307.737C294.795 307.668 295.109 307.5 295.356 307.253C295.602 307.006 295.771 306.691 295.839 306.348C295.907 306.006 295.872 305.65 295.738 305.327C295.605 305.005 295.379 304.729 295.088 304.534C294.798 304.34 294.457 304.237 294.108 304.237C293.641 304.237 293.192 304.423 292.861 304.754C292.53 305.086 292.344 305.535 292.344 306.004ZM290.894 306.004C290.894 305.369 291.082 304.749 291.434 304.222C291.785 303.695 292.285 303.284 292.87 303.041C293.455 302.798 294.099 302.735 294.72 302.858C295.341 302.982 295.912 303.288 296.359 303.736C296.807 304.185 297.112 304.756 297.236 305.378C297.359 306 297.296 306.645 297.053 307.231C296.811 307.817 296.401 308.318 295.874 308.67C295.348 309.022 294.729 309.21 294.096 309.21C293.247 309.21 292.432 308.873 291.832 308.271C291.231 307.67 290.894 306.854 290.894 306.004Z" fill="#105EFB"/>
<path d="M223.502 94.0375L222.682 93.2166L186.406 129.553C185.205 130.755 183.577 131.43 181.88 131.43C180.183 131.43 178.555 130.755 177.355 129.553L64.5906 17.1823L63.7742 18.0064L176.535 130.387C177.956 131.803 179.878 132.597 181.882 132.597C183.885 132.597 185.808 131.803 187.228 130.387L223.502 94.0375Z" fill="#105EFB"/>
<path d="M223.518 91.7479C223.518 92.0972 223.622 92.4385 223.817 92.7287C224.011 93.0188 224.287 93.2448 224.609 93.3781C224.931 93.5113 225.286 93.5458 225.628 93.4773C225.97 93.4087 226.284 93.2402 226.53 92.993C226.777 92.7457 226.944 92.4309 227.012 92.0882C227.08 91.7455 227.045 91.3904 226.911 91.0677C226.778 90.745 226.552 90.4693 226.262 90.2753C225.972 90.0812 225.631 89.9777 225.282 89.9777C224.814 89.9785 224.365 90.1654 224.034 90.4973C223.704 90.8292 223.518 91.2789 223.518 91.7479ZM222.067 91.7479C222.067 91.1136 222.255 90.4936 222.607 89.9662C222.959 89.4389 223.459 89.0278 224.044 88.7851C224.629 88.5424 225.273 88.4789 225.894 88.6026C226.515 88.7264 227.085 89.0318 227.533 89.4803C227.981 89.9288 228.286 90.5002 228.409 91.1222C228.533 91.7443 228.469 92.3891 228.227 92.9751C227.985 93.5611 227.574 94.0619 227.048 94.4143C226.521 94.7666 225.902 94.9547 225.269 94.9547C224.42 94.9547 223.606 94.6169 223.005 94.0155C222.405 93.4141 222.067 92.5984 222.067 91.7479Z" fill="#105EFB"/>
<path d="M245.288 152.691L263.021 170.428C264.435 171.848 265.229 173.772 265.229 175.778C265.229 177.784 264.435 179.708 263.021 181.129L192.568 251.85L191.746 251.029L262.208 180.308C263.405 179.106 264.076 177.478 264.076 175.78C264.076 174.082 263.405 172.454 262.208 171.252L244.478 153.512L245.288 152.691Z" fill="#105EFB"/>
<path d="M243.216 152.733C243.565 152.732 243.906 152.628 244.196 152.433C244.485 152.239 244.711 151.962 244.844 151.64C244.977 151.317 245.011 150.961 244.943 150.619C244.875 150.276 244.706 149.962 244.459 149.715C244.213 149.468 243.898 149.3 243.556 149.232C243.214 149.164 242.86 149.2 242.537 149.333C242.215 149.467 241.94 149.694 241.746 149.984C241.553 150.275 241.449 150.616 241.449 150.966C241.449 151.198 241.495 151.428 241.584 151.642C241.673 151.857 241.803 152.052 241.967 152.216C242.131 152.38 242.326 152.51 242.54 152.599C242.755 152.688 242.985 152.733 243.216 152.733ZM243.216 154.182C242.583 154.182 241.964 153.994 241.438 153.642C240.911 153.289 240.501 152.788 240.259 152.202C240.016 151.616 239.953 150.972 240.076 150.35C240.2 149.727 240.505 149.156 240.953 148.708C241.4 148.259 241.971 147.954 242.592 147.83C243.213 147.706 243.857 147.77 244.442 148.012C245.027 148.255 245.527 148.666 245.878 149.194C246.23 149.721 246.418 150.341 246.418 150.975C246.418 151.826 246.081 152.641 245.48 153.243C244.88 153.844 244.066 154.182 243.216 154.182Z" fill="#105EFB"/>
<path d="M283.386 90.8463L284.207 91.6694L196.545 179.477L195.724 178.654L283.386 90.8463Z" fill="#105EFB"/>
<path d="M283.466 88.9258C283.466 89.2753 283.57 89.6169 283.763 89.9075C283.957 90.1981 284.233 90.4246 284.555 90.5583C284.877 90.692 285.232 90.727 285.574 90.6589C285.917 90.5907 286.231 90.4224 286.478 90.1753C286.724 89.9282 286.892 89.6133 286.96 89.2706C287.028 88.9278 286.993 88.5725 286.86 88.2496C286.726 87.9268 286.5 87.6508 286.21 87.4567C285.92 87.2625 285.579 87.1589 285.23 87.1589C284.763 87.1597 284.314 87.3462 283.984 87.6773C283.653 88.0085 283.467 88.4575 283.466 88.9258ZM282.016 88.9258C282.016 88.2916 282.204 87.6716 282.555 87.1442C282.907 86.6169 283.407 86.2058 283.992 85.9631C284.577 85.7204 285.221 85.6569 285.842 85.7806C286.463 85.9044 287.033 86.2098 287.481 86.6583C287.929 87.1067 288.234 87.6781 288.357 88.3002C288.481 88.9223 288.418 89.5671 288.175 90.153C287.933 90.739 287.523 91.2399 286.996 91.5922C286.47 91.9446 285.851 92.1327 285.217 92.1327C284.368 92.1327 283.554 91.7948 282.954 91.1934C282.353 90.592 282.016 89.7763 282.016 88.9258Z" fill="#105EFB"/>
<path d="M285.595 108.212L284.772 109.036L238.603 62.79C237.239 61.4284 235.392 60.6639 233.466 60.6639C231.541 60.6639 229.693 61.4284 228.329 62.79L157.838 133.398L157.015 132.577L227.507 61.9691C229.088 60.3878 231.232 59.4996 233.466 59.4996C235.701 59.4996 237.844 60.3878 239.426 61.9691L285.595 108.212Z" fill="#105EFB"/>
<path d="M246.867 361.995C246.867 362.345 246.97 362.686 247.164 362.977C247.358 363.267 247.633 363.494 247.956 363.628C248.278 363.761 248.633 363.796 248.975 363.728C249.317 363.66 249.631 363.492 249.878 363.245C250.125 362.997 250.293 362.683 250.361 362.34C250.429 361.997 250.394 361.642 250.26 361.319C250.127 360.996 249.901 360.72 249.611 360.526C249.321 360.332 248.979 360.228 248.631 360.228C248.163 360.229 247.715 360.415 247.384 360.747C247.054 361.078 246.867 361.527 246.867 361.995ZM245.416 361.995C245.416 361.361 245.604 360.741 245.956 360.213C246.308 359.686 246.808 359.275 247.393 359.032C247.978 358.79 248.621 358.726 249.242 358.85C249.863 358.974 250.434 359.279 250.882 359.727C251.329 360.176 251.634 360.747 251.758 361.369C251.881 361.992 251.818 362.636 251.576 363.222C251.333 363.808 250.923 364.309 250.396 364.661C249.87 365.014 249.251 365.202 248.618 365.202C247.769 365.202 246.954 364.864 246.354 364.263C245.754 363.661 245.416 362.846 245.416 361.995Z" fill="#105EFB"/>
<path d="M150.881 308.236C150.881 308.586 150.984 308.929 151.178 309.22C151.372 309.512 151.648 309.739 151.971 309.874C152.294 310.008 152.65 310.043 152.993 309.975C153.336 309.907 153.651 309.738 153.898 309.49C154.146 309.243 154.314 308.927 154.382 308.583C154.45 308.24 154.415 307.883 154.281 307.56C154.147 307.236 153.92 306.96 153.629 306.766C153.337 306.571 152.995 306.468 152.646 306.469C152.178 306.469 151.73 306.656 151.399 306.987C151.068 307.318 150.882 307.767 150.881 308.236ZM149.434 308.236C149.434 307.601 149.622 306.981 149.974 306.454C150.326 305.927 150.826 305.516 151.411 305.273C151.996 305.03 152.639 304.967 153.26 305.09C153.882 305.214 154.452 305.519 154.9 305.968C155.347 306.416 155.652 306.988 155.776 307.61C155.899 308.232 155.836 308.877 155.594 309.463C155.351 310.049 154.941 310.55 154.415 310.902C153.888 311.254 153.269 311.442 152.636 311.442C151.787 311.442 150.973 311.104 150.372 310.503C149.772 309.902 149.434 309.086 149.434 308.236Z" fill="#105EFB"/>
<path d="M139.286 111.335L138.463 110.511L92.2971 156.757C90.9326 158.119 89.0848 158.883 87.1586 158.883C85.2324 158.883 83.3847 158.119 82.0202 156.757L11.5289 86.1487L10.7093 86.9696L81.2006 157.578C82.7822 159.159 84.9256 160.047 87.1602 160.047C89.3949 160.047 91.5383 159.159 93.1199 157.578L139.286 111.335Z" fill="#105EFB"/>
<path d="M138.988 108.674C138.988 109.023 139.091 109.365 139.285 109.655C139.479 109.946 139.754 110.172 140.077 110.306C140.399 110.44 140.754 110.475 141.096 110.407C141.438 110.338 141.752 110.17 141.999 109.923C142.246 109.676 142.414 109.361 142.482 109.018C142.55 108.675 142.515 108.32 142.382 107.997C142.248 107.674 142.022 107.398 141.732 107.204C141.442 107.01 141.101 106.907 140.752 106.907C140.284 106.907 139.835 107.093 139.504 107.424C139.174 107.755 138.988 108.205 138.988 108.674ZM137.537 108.674C137.537 108.039 137.725 107.419 138.077 106.892C138.429 106.365 138.929 105.954 139.514 105.711C140.099 105.468 140.743 105.405 141.364 105.528C141.985 105.652 142.555 105.957 143.003 106.406C143.45 106.854 143.755 107.426 143.879 108.048C144.002 108.67 143.939 109.315 143.697 109.901C143.454 110.487 143.044 110.988 142.518 111.34C141.991 111.692 141.372 111.88 140.739 111.88C139.89 111.88 139.076 111.542 138.475 110.941C137.875 110.34 137.537 109.524 137.537 108.674Z" fill="#105EFB"/>
<path d="M284.837 109.783C284.837 110.133 284.94 110.474 285.134 110.765C285.328 111.055 285.603 111.282 285.926 111.416C286.248 111.549 286.603 111.584 286.945 111.516C287.287 111.448 287.601 111.28 287.848 111.033C288.095 110.785 288.263 110.471 288.331 110.128C288.399 109.785 288.364 109.43 288.23 109.107C288.097 108.784 287.871 108.508 287.581 108.314C287.291 108.12 286.949 108.016 286.601 108.016C286.133 108.017 285.685 108.203 285.354 108.535C285.024 108.866 284.837 109.315 284.837 109.783ZM283.386 109.783C283.386 109.149 283.574 108.529 283.926 108.002C284.278 107.474 284.778 107.063 285.363 106.82C285.948 106.578 286.591 106.514 287.212 106.638C287.833 106.762 288.404 107.067 288.852 107.516C289.299 107.964 289.604 108.535 289.728 109.158C289.851 109.78 289.788 110.424 289.546 111.01C289.303 111.596 288.893 112.097 288.366 112.45C287.84 112.802 287.221 112.99 286.588 112.99C285.739 112.99 284.924 112.652 284.324 112.051C283.724 111.449 283.386 110.634 283.386 109.783Z" fill="#105EFB"/>
<path d="M153.83 135.431C153.83 135.781 153.934 136.122 154.129 136.412C154.323 136.702 154.599 136.928 154.921 137.062C155.243 137.195 155.598 137.229 155.94 137.161C156.282 137.092 156.596 136.924 156.842 136.677C157.089 136.429 157.256 136.114 157.324 135.772C157.392 135.429 157.357 135.074 157.223 134.751C157.09 134.429 156.864 134.153 156.574 133.959C156.284 133.765 155.943 133.661 155.594 133.661C155.362 133.661 155.132 133.707 154.918 133.796C154.704 133.885 154.509 134.016 154.345 134.18C154.182 134.344 154.052 134.54 153.963 134.754C153.875 134.969 153.829 135.199 153.83 135.431ZM152.379 135.431C152.379 134.797 152.567 134.177 152.919 133.65C153.271 133.122 153.771 132.711 154.356 132.469C154.941 132.226 155.585 132.162 156.206 132.286C156.827 132.41 157.397 132.715 157.845 133.164C158.293 133.612 158.598 134.184 158.721 134.806C158.845 135.428 158.781 136.073 158.539 136.659C158.297 137.245 157.886 137.745 157.36 138.098C156.833 138.45 156.214 138.638 155.581 138.638C154.732 138.638 153.918 138.3 153.317 137.699C152.717 137.098 152.379 136.282 152.379 135.431Z" fill="#105EFB"/>
<path d="M297.906 340.453L298.728 341.275L252.586 387.542L251.764 386.72L297.906 340.453Z" fill="#105EFB"/>
<path d="M298.443 338.652C298.444 339.002 298.548 339.343 298.742 339.633C298.936 339.923 299.212 340.149 299.535 340.283C299.857 340.416 300.211 340.45 300.553 340.382C300.895 340.313 301.209 340.145 301.456 339.897C301.702 339.65 301.87 339.335 301.938 338.993C302.006 338.65 301.97 338.295 301.837 337.972C301.703 337.65 301.477 337.374 301.187 337.18C300.897 336.986 300.556 336.882 300.207 336.882C299.975 336.882 299.746 336.928 299.532 337.017C299.317 337.106 299.123 337.236 298.959 337.401C298.795 337.565 298.665 337.76 298.577 337.975C298.488 338.19 298.443 338.42 298.443 338.652ZM296.996 338.652C296.996 338.018 297.184 337.398 297.536 336.871C297.888 336.343 298.388 335.932 298.973 335.69C299.558 335.447 300.201 335.383 300.822 335.507C301.443 335.631 302.014 335.936 302.462 336.385C302.909 336.833 303.214 337.405 303.338 338.027C303.461 338.649 303.398 339.294 303.156 339.88C302.913 340.466 302.503 340.966 301.976 341.319C301.45 341.671 300.831 341.859 300.198 341.859C299.349 341.859 298.534 341.521 297.934 340.92C297.334 340.319 296.996 339.503 296.996 338.652Z" fill="#105EFB"/>
<path d="M82.974 75.8548C82.974 76.2043 83.0774 76.5459 83.2713 76.8365C83.4651 77.1271 83.7406 77.3535 84.0629 77.4873C84.3853 77.621 84.7399 77.656 85.0821 77.5878C85.4243 77.5196 85.7387 77.3514 85.9854 77.1042C86.2321 76.8571 86.4001 76.5423 86.4681 76.1995C86.5362 75.8568 86.5013 75.5015 86.3677 75.1786C86.2342 74.8557 86.0081 74.5798 85.7181 74.3856C85.428 74.1915 85.0869 74.0878 84.738 74.0878C84.2704 74.0887 83.8222 74.2751 83.4916 74.6063C83.1609 74.9375 82.9748 75.3864 82.974 75.8548ZM81.5269 75.8548C81.5269 75.2205 81.7146 74.6005 82.0664 74.0732C82.4182 73.5458 82.9182 73.1348 83.5032 72.8921C84.0882 72.6493 84.732 72.5858 85.353 72.7096C85.974 72.8333 86.5445 73.1387 86.9922 73.5872C87.44 74.0357 87.7449 74.6071 87.8684 75.2292C87.9919 75.8512 87.9285 76.496 87.6862 77.082C87.4439 77.668 87.0336 78.1688 86.5071 78.5212C85.9806 78.8736 85.3616 79.0616 84.7284 79.0616C83.8793 79.0616 83.065 78.7238 82.4646 78.1224C81.8642 77.521 81.5269 76.7053 81.5269 75.8548Z" fill="#105EFB"/>
<path d="M148.707 73.363L147.574 72.231L146.444 73.363L147.574 74.4982L148.707 73.363ZM145.083 69.736L143.953 68.604L142.82 69.736L143.953 70.8713L145.083 69.736ZM141.462 66.1091L140.332 64.9739L139.199 66.1091L140.332 67.2411L141.462 66.1091ZM137.841 62.4789L136.708 61.3469L135.578 62.4789L136.708 63.6142L137.841 62.4789ZM134.23 58.8584L133.1 57.7264L131.966 58.8584L133.1 59.9936L134.23 58.8584ZM130.609 55.2315L129.476 54.0962L128.346 55.2315L129.476 56.3635L130.609 55.2315ZM126.988 51.6013L125.855 50.4693L124.721 51.6013L125.855 52.7365L126.988 51.6013ZM123.364 47.9551L122.234 46.8199L121.101 47.9551L122.234 49.0904L123.364 47.9551ZM119.743 44.3282L118.61 43.193L117.48 44.3282L118.613 45.473L119.743 44.3282ZM116.119 40.698L114.989 39.566L113.855 40.698L114.989 41.8621L116.119 40.698ZM112.498 37.0839L111.365 35.9487L110.235 37.0839L111.365 38.2192L112.498 37.0839ZM108.874 33.457L107.744 32.3218L106.61 33.457L107.728 34.589L108.874 33.457ZM105.253 29.8268L104.123 28.6948L102.989 29.8268L104.123 30.9589L105.253 29.8268ZM101.645 26.1999L100.512 25.0647L99.3814 26.1999L100.512 27.3319L101.645 26.1999ZM98.0208 22.573L96.8906 21.4377L95.7573 22.573L96.8906 23.705L98.0208 22.573ZM94.3998 18.9428L93.2665 17.8108L92.1364 18.9428L93.2665 20.078L94.3998 18.9428ZM90.7597 15.3159L89.6263 14.1806L88.493 15.3159L89.6263 16.4479L90.7597 15.3159ZM87.1356 11.6889L86.0054 10.5537L84.8721 11.6889L86.0054 12.8209L87.1356 11.6889ZM83.5146 8.05877L82.3813 6.92676L81.2512 8.05877L82.3813 9.194L83.5146 8.05877Z" fill="#105EFB"/>
<path d="M88.0577 258.988L86.9244 257.853L85.7942 258.988L86.918 260.12L88.0577 258.988ZM84.4368 255.361L83.3034 254.226L82.1733 255.361L83.3034 256.493L84.4368 255.361ZM80.8127 251.731L79.6825 250.599L78.5492 251.731L79.6825 252.873L80.8127 251.731ZM77.1917 248.104L76.0584 246.969L74.9283 248.104L76.0584 249.236L77.1917 248.104ZM73.5708 244.477L72.4375 243.342L71.3041 244.477L72.4375 245.609L73.5708 244.477ZM69.9499 240.847L68.8165 239.715L67.6864 240.847L68.8165 241.982L69.9499 240.847ZM66.3289 237.22L65.1956 236.085L64.0655 237.22L65.1956 238.355L66.3289 237.22ZM62.7048 233.593L61.5747 232.458L60.4414 233.593L61.5747 234.725L62.7048 233.593ZM59.0647 229.963L57.9313 228.831L56.8012 229.963L57.9313 231.098L59.0647 229.963ZM55.4437 226.336L54.3104 225.201L53.1803 226.336L54.3104 227.471L55.4437 226.336ZM51.8196 222.709L50.6895 221.574L49.5562 222.709L50.6895 223.841L51.8196 222.709ZM48.1987 219.079L47.0654 217.947L45.9352 219.079L47.0654 220.214L48.1987 219.079ZM44.5746 215.452L43.4444 214.317L42.3111 215.452L43.4444 216.584L44.5746 215.452ZM40.9696 211.825L39.8363 210.69L38.7062 211.825L39.8363 212.957L40.9696 211.825ZM37.3487 208.195L36.2154 207.063L35.0852 208.195L36.2154 209.33L37.3487 208.195ZM33.7246 204.568L32.5944 203.433L31.4611 204.568L32.5944 205.7L33.7246 204.568ZM30.1037 200.938L28.9703 199.806L27.8402 200.938L28.9703 202.073L30.1037 200.938ZM26.4795 197.311L25.3494 196.179L24.216 197.311L25.3494 198.446L26.4795 197.311ZM22.8586 193.684L21.7253 192.549L20.5951 193.684L21.7253 194.816L22.8586 193.684Z" fill="#105EFB"/>
<path d="M74.6787 91.2476L73.5454 90.1156L72.4152 91.2476L73.5454 92.3828L74.6787 91.2476ZM71.0578 87.6206L69.9245 86.4886L68.7943 87.6206L69.9245 88.7559L71.0578 87.6206ZM67.4337 83.9937L66.3035 82.8585L65.1702 83.9937L66.3035 85.1257L67.4337 83.9937ZM63.8127 80.3635L62.6794 79.2315L61.5493 80.3635L62.6794 81.4988L63.8127 80.3635ZM60.1918 76.7366L59.0585 75.6046L57.9251 76.7366L59.0649 77.8815L60.1918 76.7366ZM56.5677 73.1097L55.4376 71.9744L54.3042 73.1097L55.4376 74.2513L56.5677 73.1097ZM52.9468 69.4795L51.8134 68.3475L50.6833 69.4795L51.8134 70.6147L52.9468 69.4795ZM49.3226 65.8526L48.1797 64.727L47.0464 65.8622L48.1797 66.9942L49.3226 65.8526ZM45.7017 62.2256L44.5684 61.0904L43.4382 62.2256L44.5684 63.3576L45.7017 62.2256ZM42.0808 58.5955L40.9475 57.4635L39.8173 58.5955L40.9475 59.7307L42.0808 58.5955ZM38.4567 54.9685L37.3265 53.8333L36.1932 54.9685L37.3265 56.1006L38.4567 54.9685ZM34.8358 51.3416L33.7024 50.2064L32.5723 51.3416L33.7024 52.4736L34.8358 51.3416ZM31.2117 47.7211L30.0815 46.5891L28.9482 47.7211L30.0815 48.8563L31.2117 47.7211ZM27.5907 44.107L26.4606 42.9717L25.3273 44.107L26.4606 45.239L27.5907 44.107ZM23.9698 40.4768L22.8365 39.3448L21.7032 40.4768L22.8365 41.612L23.9698 40.4768ZM20.3457 36.8499L19.2156 35.7178L18.0822 36.8499L19.2156 37.9851L20.3457 36.8499ZM16.7248 33.2037L15.5914 32.0685L14.4613 33.2037L15.5914 34.3357L16.7248 33.2037ZM13.1007 29.5735L11.9705 28.4415L10.8372 29.5735L11.9705 30.7088L13.1007 29.5735ZM9.47973 25.9466L8.34637 24.8146L7.21627 25.9466L8.34637 27.0818L9.47973 25.9466Z" fill="#105EFB"/>
<path d="M149.716 167.987L148.583 166.855L147.453 167.987L148.583 169.123L149.716 167.987ZM146.092 164.364L144.962 163.232L143.829 164.364L144.962 165.499L146.092 164.364ZM142.471 160.737L141.338 159.601L140.208 160.737L141.338 161.869L142.471 160.737ZM138.85 157.11L137.717 155.975L136.584 157.11L137.717 158.242L138.85 157.11ZM135.226 153.48L134.096 152.348L132.963 153.48L134.096 154.615L135.226 153.48ZM131.605 149.853L130.472 148.717L129.342 149.853L130.472 150.985L131.605 149.853ZM127.981 146.222L126.851 145.09L125.718 146.222L126.851 147.358L127.981 146.222ZM124.36 142.596L123.23 141.46L122.097 142.596L123.23 143.731L124.36 142.596ZM120.739 138.969L119.606 137.833L118.473 138.969L119.606 140.101L120.739 138.969ZM117.115 135.338L115.985 134.206L114.852 135.338L115.985 136.474L117.115 135.338ZM113.491 131.708L112.358 130.576L111.227 131.708L112.358 132.844L113.491 131.708ZM109.867 128.081L108.737 126.946L107.603 128.081L108.737 129.213L109.867 128.081ZM106.246 124.451L105.112 123.319L103.982 124.451L105.112 125.586L106.246 124.451Z" fill="#105EFB"/>
<path d="M317.543 392.021L316.413 390.886L315.28 392.021L316.413 393.156L317.543 392.021ZM313.906 388.394L312.773 387.259L311.643 388.394L312.773 389.526L313.906 388.394ZM310.282 384.764L309.152 383.632L308.019 384.764L309.152 385.899L310.282 384.764ZM306.677 381.146L305.544 380.014L304.414 381.146L305.544 382.282L306.677 381.146ZM303.056 377.519L301.923 376.384L300.79 377.519L301.923 378.651L303.056 377.519ZM299.432 373.889L298.302 372.757L297.169 373.889L298.302 375.025L299.432 373.889ZM295.811 370.243L294.678 369.108L293.548 370.243L294.678 371.375L295.811 370.243ZM292.187 366.616L291.057 365.481L289.924 366.616L291.057 367.748L292.187 366.616ZM288.566 362.986L287.433 361.854L286.303 362.986L287.433 364.121L288.566 362.986ZM284.945 359.359L283.812 358.224L282.679 359.359L283.812 360.501L284.945 359.359ZM281.321 355.732L280.191 354.597L279.058 355.732L280.191 356.864L281.321 355.732ZM277.7 352.102L276.567 350.97L275.437 352.102L276.567 353.247L277.7 352.102ZM274.076 348.475L272.946 347.34L271.813 348.475L272.946 349.607L274.076 348.475ZM270.455 344.848L269.325 343.713L268.192 344.848L269.325 345.98L270.455 344.848ZM266.844 341.228L265.711 340.096L264.58 341.228L265.711 342.363L266.844 341.228ZM263.22 337.601L262.09 336.465L260.956 337.601L262.09 338.733L263.22 337.601ZM259.599 333.97L258.466 332.838L257.335 333.97L258.466 335.106L259.599 333.97ZM255.959 330.344L254.825 329.211L253.692 330.344L254.825 331.479L255.959 330.344ZM252.335 326.717L251.204 325.581L250.071 326.717L251.204 327.849L252.335 326.717ZM248.723 323.102L247.59 321.97L246.46 323.102L247.59 324.238L248.723 323.102ZM245.099 319.476L243.969 318.343L242.836 319.476L243.969 320.611L245.099 319.476ZM241.478 315.849L240.345 314.713L239.215 315.849L240.345 316.981L241.478 315.849ZM237.854 312.199L236.724 311.067L235.591 312.199L236.724 313.334L237.854 312.199ZM234.233 308.572L233.103 307.437L231.97 308.572L233.103 309.707L234.233 308.572Z" fill="#105EFB"/>
<path d="M183.316 66.4394L182.186 65.3042L181.053 66.4394L182.186 67.5714L183.316 66.4394ZM186.941 62.8125L185.807 61.6772L184.677 62.8125L185.807 63.9445L186.941 62.8125ZM190.561 59.1791L189.428 58.0471L188.298 59.1791L189.428 60.3143L190.561 59.1791ZM194.17 55.5554L193.039 54.4202L191.928 55.5554L193.062 56.6874L194.17 55.5554ZM197.806 51.9284L196.673 50.7932L195.543 51.9284L196.673 53.0605L197.806 51.9284ZM201.427 48.2983L200.297 47.1663L199.164 48.2983L200.297 49.4335L201.427 48.2983ZM205.055 44.6713L203.921 43.5361L202.791 44.6713L203.921 45.8034L205.055 44.6713ZM208.673 41.0412L207.539 39.9092L206.409 41.0412L207.539 42.1828L208.673 41.0412ZM212.293 37.4143L211.163 36.2822L210.03 37.4143L211.163 38.5495L212.293 37.4143ZM215.918 33.7873L214.784 32.6521L213.654 33.7873L214.784 34.9193L215.918 33.7873ZM219.538 30.1572L218.408 29.0252L217.275 30.1572L218.408 31.2796L219.538 30.1572ZM223.163 26.5302L222.023 25.3982L220.89 26.5302L222.023 27.6655L223.163 26.5302ZM226.784 22.9033L225.65 21.7681L224.52 22.9033L225.65 24.0353L226.784 22.9033ZM230.404 19.2731L229.274 18.1315L228.141 19.2635L229.274 20.3987L230.404 19.2731ZM234.029 15.6462L232.895 14.5142L231.765 15.6462L232.908 16.7814L234.029 15.6462ZM237.65 12.0193L236.519 10.884L235.386 12.0193L236.519 13.1513L237.65 12.0193ZM241.274 8.3891L240.14 7.25709L239.007 8.3891L240.14 9.52433L241.274 8.3891ZM244.895 4.76216L243.761 3.62694L242.631 4.76216L243.761 5.89739L244.895 4.76216ZM248.516 1.13522L247.385 0L246.252 1.13522L247.385 2.26724L248.516 1.13522Z" fill="#105EFB"/>
<path d="M64.9044 375.74L63.771 374.604L62.6409 375.74L63.771 376.872L64.9044 375.74ZM68.5253 372.109L67.3951 370.977L66.2618 372.109L67.3951 373.245L68.5253 372.109ZM72.1494 368.483L71.0161 367.347L69.8859 368.483L71.0161 369.615L72.1494 368.483ZM75.7704 364.852L74.6402 363.72L73.5069 364.852L74.6402 365.988L75.7704 364.852ZM79.3945 361.225L78.2611 360.09L77.131 361.225L78.2611 362.361L79.3945 361.225ZM83.0154 357.599L81.8821 356.463L80.7519 357.599L81.8821 358.731L83.0154 357.599ZM86.6363 353.968L85.5062 352.836L84.3728 353.968L85.5062 355.104L86.6363 353.968ZM90.2604 350.341L89.1271 349.206L87.997 350.341L89.1271 351.477L90.2604 350.341ZM93.8814 346.714L92.7512 345.579L91.6179 346.714L92.7512 347.846L93.8814 346.714ZM97.5055 343.084L96.3722 341.952L95.2388 343.084L96.3722 344.22L97.5055 343.084ZM101.126 339.457L99.9931 338.325L98.863 339.457L99.9931 340.593L101.126 339.457ZM104.747 335.83L103.617 334.695L102.484 335.83L103.617 336.962L104.747 335.83ZM108.368 332.2L107.235 331.068L106.105 332.2L107.235 333.336L108.368 332.2ZM111.989 328.573L110.859 327.438L109.726 328.573L110.859 329.709L111.989 328.573ZM115.613 324.946L114.48 323.811L113.35 324.946L114.48 326.078L115.613 324.946ZM119.234 321.316L118.101 320.184L116.971 321.316L118.101 322.451L119.234 321.316ZM122.855 317.689L121.725 316.554L120.592 317.689L121.725 318.821L122.855 317.689ZM126.479 314.062L125.346 312.927L124.216 314.062L125.346 315.194L126.479 314.062ZM130.1 310.432L128.97 309.3L127.837 310.432L128.97 311.567L130.1 310.432ZM133.724 306.805L132.591 305.67L131.458 306.805L132.591 307.937L133.724 306.805ZM137.345 303.175L136.212 302.043L135.082 303.175L136.222 304.31L137.345 303.175ZM140.966 299.548L139.836 298.416L138.703 299.548L139.836 300.683L140.966 299.548ZM144.59 295.921L143.457 294.786L142.327 295.921L143.457 297.053L144.59 295.921Z" fill="#105EFB"/>
<path d="M166.636 244.115L165.506 242.983L164.373 244.115L165.506 245.25L166.636 244.115ZM170.26 240.488L169.127 239.353L167.997 240.488L169.127 241.62L170.26 240.488ZM173.881 236.858L172.748 235.726L171.618 236.858L172.748 237.993L173.881 236.858ZM177.521 233.231L176.391 232.099L175.258 233.231L176.391 234.366L177.521 233.231ZM181.145 229.604L180.012 228.468L178.882 229.604L180.012 230.736L181.145 229.604ZM184.766 225.974L183.636 224.842L182.503 225.974L183.636 227.109L184.766 225.974ZM188.391 222.347L187.257 221.215L186.127 222.347L187.257 223.482L188.391 222.347ZM192.011 218.72L190.878 217.584L189.748 218.72L190.872 219.842L192.011 218.72ZM195.632 215.09L194.502 213.958L193.369 215.09L194.502 216.225L195.632 215.09ZM199.257 211.463L198.123 210.327L196.993 211.463L198.123 212.598L199.257 211.463ZM202.877 207.836L201.747 206.7L200.614 207.836L201.747 208.968L202.877 207.836ZM206.502 204.205L205.368 203.073L204.235 204.205L205.368 205.341L206.502 204.205ZM210.122 200.579L208.989 199.443L207.859 200.579L208.989 201.714L210.122 200.579ZM213.743 196.952L212.613 195.816L211.48 196.952L212.613 198.084L213.743 196.952ZM217.368 193.321L216.234 192.189L215.104 193.321L216.234 194.457L217.368 193.321ZM220.982 189.698L219.852 188.562L218.719 189.698L219.852 190.833L220.982 189.698Z" fill="#105EFB"/>
<path d="M150.565 349.238L149.434 348.103L148.301 349.238L149.434 350.37L150.565 349.238ZM154.189 345.608L153.055 344.476L151.925 345.608L153.055 346.743L154.189 345.608ZM157.81 341.981L156.679 340.846L155.546 341.981L156.679 343.113L157.81 341.981ZM161.434 338.351L160.3 337.219L159.17 338.351L160.3 339.486L161.434 338.351ZM165.055 334.724L163.921 333.592L162.791 334.724L163.921 335.859L165.055 334.724ZM168.676 331.097L167.545 329.962L166.412 331.097L167.545 332.229L168.676 331.097ZM172.3 327.467L171.166 326.335L170.036 327.467L171.166 328.602L172.3 327.467ZM175.921 323.84L174.791 322.705L173.657 323.84L174.791 324.972L175.921 323.84ZM179.545 320.216L178.411 319.081L177.281 320.216L178.411 321.348L179.545 320.216ZM183.166 316.586L182.032 315.454L180.902 316.586L182.032 317.721L183.166 316.586ZM186.787 312.959L185.657 311.824L184.523 312.959L185.657 314.094L186.787 312.959Z" fill="#105EFB"/>
<path d="M106.079 176.168L104.949 175.036L103.816 176.168L104.949 177.303L106.079 176.168ZM102.458 172.541L101.325 171.419L100.195 172.554L101.325 173.663L102.458 172.541ZM98.8343 168.911L97.7042 167.779L96.5709 168.911L97.7042 170.046L98.8343 168.911ZM95.2134 165.284L94.0801 164.152L92.9499 165.284L94.0801 166.419L95.2134 165.284Z" fill="#105EFB"/>
<path d="M233.116 195.274C233.328 195.487 233.58 195.656 233.857 195.771C234.135 195.886 234.432 195.946 234.732 195.946C235.033 195.946 235.33 195.886 235.607 195.771C235.885 195.656 236.137 195.487 236.349 195.274L254.243 177.351C254.455 177.139 254.623 176.886 254.738 176.608C254.853 176.331 254.912 176.033 254.912 175.732C254.912 175.431 254.853 175.133 254.738 174.855C254.623 174.578 254.455 174.325 254.243 174.113L236.349 156.189C236.137 155.977 235.885 155.808 235.607 155.693C235.33 155.578 235.033 155.518 234.732 155.518C234.432 155.518 234.135 155.578 233.857 155.693C233.58 155.808 233.328 155.977 233.116 156.189L215.222 174.113C215.01 174.325 214.841 174.578 214.727 174.855C214.612 175.133 214.552 175.431 214.552 175.732C214.552 176.033 214.612 176.331 214.727 176.608C214.841 176.886 215.01 177.139 215.222 177.351L233.116 195.274Z" stroke="#105EFB" stroke-width="5" stroke-miterlimit="10"/>
<path d="M234.73 159.557L250.878 175.732L234.73 191.907L218.582 175.732L234.73 159.557Z" fill="#105EFB"/>
<path d="M216.445 295.168C216.733 295.456 217.075 295.685 217.451 295.841C217.827 295.997 218.23 296.077 218.637 296.077C219.044 296.077 219.447 295.997 219.823 295.841C220.199 295.685 220.541 295.456 220.828 295.168L245.057 270.895C245.345 270.607 245.573 270.265 245.729 269.889C245.885 269.512 245.965 269.109 245.965 268.702C245.965 268.294 245.885 267.891 245.729 267.514C245.573 267.138 245.345 266.796 245.057 266.508L220.825 242.239C220.538 241.951 220.196 241.722 219.82 241.566C219.445 241.41 219.042 241.33 218.635 241.33C218.229 241.33 217.826 241.41 217.45 241.566C217.074 241.722 216.733 241.951 216.445 242.239L192.216 266.508C191.929 266.796 191.7 267.138 191.545 267.514C191.389 267.891 191.309 268.294 191.309 268.702C191.309 269.109 191.389 269.512 191.545 269.889C191.7 270.265 191.929 270.607 192.216 270.895L216.445 295.168Z" stroke="#105EFB" stroke-width="5" stroke-miterlimit="10"/>
<path d="M218.635 245.034L242.265 268.703L218.635 292.372L195.005 268.703L218.635 245.034Z" fill="#105EFB"/>
<path d="M101.738 297.486C102.201 297.95 102.83 298.21 103.484 298.21C104.139 298.21 104.767 297.95 105.231 297.486L124.552 278.133C125.015 277.669 125.275 277.04 125.275 276.384C125.275 275.728 125.015 275.099 124.552 274.634L105.231 255.281C104.767 254.817 104.139 254.557 103.484 254.557C102.83 254.557 102.201 254.817 101.738 255.281L82.4168 274.634C81.9541 275.099 81.6942 275.728 81.6942 276.384C81.6942 277.04 81.9541 277.669 82.4168 278.133L101.738 297.486Z" stroke="#105EFB" stroke-width="5" stroke-miterlimit="10"/>
<path d="M103.483 258.522L121.315 276.384L103.483 294.245L85.6508 276.384L103.483 258.522Z" fill="#105EFB"/>
<path d="M130.58 377.551C130.924 377.895 131.39 378.087 131.875 378.087C132.361 378.087 132.826 377.895 133.17 377.551L147.497 363.188C147.668 363.018 147.803 362.816 147.895 362.593C147.987 362.37 148.035 362.132 148.035 361.891C148.035 361.65 147.987 361.411 147.895 361.189C147.803 360.966 147.668 360.764 147.497 360.594L133.17 346.243C133 346.072 132.799 345.937 132.576 345.844C132.354 345.752 132.116 345.704 131.875 345.704C131.635 345.704 131.396 345.752 131.174 345.844C130.952 345.937 130.75 346.072 130.58 346.243L116.25 360.594C115.907 360.938 115.715 361.405 115.715 361.891C115.715 362.377 115.907 362.844 116.25 363.188L130.58 377.551Z" stroke="#105EFB" stroke-width="5" stroke-miterlimit="10"/>
<path d="M131.875 349.944L143.812 361.901L131.875 373.857L119.938 361.901L131.875 349.944Z" fill="#105EFB"/>
<path d="M161.475 101.359C161.819 101.702 162.285 101.895 162.77 101.895C163.256 101.895 163.721 101.702 164.065 101.359L178.395 87.0049C178.738 86.6611 178.93 86.1951 178.93 85.7094C178.93 85.2236 178.738 84.7577 178.395 84.4138L164.075 70.06C163.731 69.7167 163.265 69.5239 162.78 69.5239C162.294 69.5239 161.829 69.7167 161.485 70.06L147.158 84.4138C146.987 84.5837 146.852 84.7856 146.76 85.0079C146.668 85.2302 146.62 85.4686 146.62 85.7094C146.62 85.9502 146.668 86.1885 146.76 86.4109C146.852 86.6332 146.987 86.8351 147.158 87.0049L161.475 101.359Z" stroke="#105EFB" stroke-width="5" stroke-miterlimit="10"/>
<path d="M162.775 73.7486L174.713 85.7056L162.775 97.6625L150.838 85.7056L162.775 73.7486Z" fill="#105EFB"/>
<path d="M155.786 301.867C155.969 302.05 156.185 302.195 156.424 302.294C156.662 302.393 156.918 302.444 157.176 302.444C157.434 302.444 157.689 302.393 157.928 302.294C158.166 302.195 158.383 302.05 158.565 301.867L173.933 286.474C174.115 286.291 174.26 286.074 174.359 285.836C174.458 285.597 174.509 285.341 174.509 285.082C174.509 284.824 174.458 284.567 174.359 284.329C174.26 284.09 174.115 283.873 173.933 283.69L158.565 268.297C158.383 268.114 158.166 267.969 157.928 267.87C157.689 267.771 157.434 267.72 157.176 267.72C156.918 267.72 156.662 267.771 156.424 267.87C156.185 267.969 155.969 268.114 155.786 268.297L140.419 283.69C140.051 284.06 139.845 284.56 139.845 285.082C139.845 285.604 140.051 286.104 140.419 286.474L155.786 301.867Z" stroke="#105EFB" stroke-width="5" stroke-miterlimit="10"/>
<path d="M157.178 271.867L170.36 285.071L157.178 298.275L143.996 285.071L157.178 271.867Z" fill="#105EFB"/>
<path d="M224.472 119.022C224.686 119.236 224.977 119.356 225.28 119.356C225.583 119.356 225.874 119.236 226.088 119.022L235.037 110.043C235.246 109.828 235.362 109.541 235.362 109.241C235.362 108.942 235.246 108.654 235.037 108.439L226.088 99.4796C225.982 99.3728 225.857 99.2881 225.718 99.2303C225.579 99.1725 225.43 99.1427 225.28 99.1427C225.13 99.1427 224.981 99.1725 224.842 99.2303C224.704 99.2881 224.578 99.3728 224.472 99.4796L215.527 108.439C215.316 108.653 215.198 108.941 215.198 109.241C215.198 109.541 215.316 109.829 215.527 110.043L224.472 119.022Z" stroke="#105EFB" stroke-width="5" stroke-miterlimit="10"/>
<path d="M225.28 103.661L230.863 109.253L225.28 114.845L219.698 109.253L225.28 103.661Z" fill="#105EFB"/>
<path d="M173.583 159.505C173.707 159.629 173.854 159.728 174.015 159.795C174.177 159.862 174.35 159.897 174.525 159.897C174.7 159.897 174.873 159.862 175.034 159.795C175.196 159.728 175.342 159.629 175.466 159.505L185.887 149.067C186.011 148.943 186.109 148.796 186.176 148.635C186.243 148.473 186.278 148.299 186.278 148.124C186.278 147.949 186.243 147.776 186.176 147.614C186.109 147.452 186.011 147.305 185.887 147.181L175.466 136.743C175.342 136.619 175.196 136.521 175.034 136.453C174.873 136.386 174.7 136.352 174.525 136.352C174.35 136.352 174.177 136.386 174.015 136.453C173.854 136.521 173.707 136.619 173.583 136.743L163.162 147.181C163.039 147.305 162.94 147.452 162.873 147.614C162.806 147.776 162.772 147.949 162.772 148.124C162.772 148.299 162.806 148.473 162.873 148.635C162.94 148.796 163.039 148.943 163.162 149.067L173.583 159.505Z" stroke="#105EFB" stroke-width="5" stroke-miterlimit="10"/>
<path d="M174.525 140.791L181.849 148.127L174.525 155.462L167.202 148.127L174.525 140.791Z" fill="#105EFB"/>
<path d="M113.071 105.576C113.358 105.862 113.746 106.023 114.15 106.023C114.555 106.023 114.943 105.862 115.229 105.576L127.155 93.6303C127.441 93.344 127.601 92.9559 127.601 92.5512C127.601 92.1465 127.441 91.7583 127.155 91.4721L115.226 79.5234C114.94 79.2381 114.552 79.0779 114.149 79.0779C113.745 79.0779 113.358 79.2381 113.071 79.5234L101.146 91.4721C100.86 91.7583 100.7 92.1465 100.7 92.5512C100.7 92.9559 100.86 93.344 101.146 93.6303L113.071 105.576Z" stroke="#105EFB" stroke-width="5" stroke-miterlimit="10"/>
<path d="M114.15 82.8079L123.876 92.5494L114.15 102.291L104.425 92.5494L114.15 82.8079Z" fill="#105EFB"/>
<path d="M120.236 200.486C120.334 200.584 120.45 200.662 120.578 200.715C120.706 200.768 120.842 200.795 120.981 200.795C121.119 200.795 121.256 200.768 121.384 200.715C121.512 200.662 121.628 200.584 121.725 200.486L129.972 192.228C130.169 192.029 130.279 191.761 130.279 191.481C130.279 191.201 130.169 190.932 129.972 190.734L121.725 182.476C121.628 182.378 121.512 182.3 121.384 182.247C121.256 182.193 121.119 182.166 120.981 182.166C120.842 182.166 120.706 182.193 120.578 182.247C120.45 182.3 120.334 182.378 120.236 182.476L111.989 190.734C111.793 190.932 111.682 191.201 111.682 191.481C111.682 191.761 111.793 192.029 111.989 192.228L120.236 200.486Z" stroke="#105EFB" stroke-width="4.24" stroke-miterlimit="10"/>
<path d="M120.982 184.59L127.853 191.472L120.982 198.354L114.112 191.472L120.982 184.59Z" fill="#105EFB"/>
<path d="M90.1742 146.043C90.284 146.152 90.4324 146.214 90.5872 146.214C90.7419 146.214 90.8904 146.152 91.0002 146.043L95.5816 141.454C95.6907 141.344 95.752 141.195 95.752 141.04C95.752 140.885 95.6907 140.736 95.5816 140.627L91.0002 136.038C90.8904 135.928 90.7419 135.867 90.5872 135.867C90.4324 135.867 90.284 135.928 90.1742 136.038L85.5928 140.633C85.4837 140.743 85.4225 140.892 85.4225 141.047C85.4225 141.202 85.4837 141.35 85.5928 141.46L90.1742 146.043Z" stroke="#105EFB" stroke-width="2.35" stroke-miterlimit="10" stroke-linecap="round"/>
<path d="M90.5976 137.206L94.4121 141.027L90.5976 144.848L86.783 141.027L90.5976 137.206Z" fill="#105EFB"/>
<path d="M74.3619 194.627C74.3988 194.664 74.4427 194.693 74.491 194.714C74.5394 194.734 74.5913 194.744 74.6436 194.744C74.696 194.744 74.7479 194.734 74.7962 194.714C74.8446 194.693 74.8885 194.664 74.9254 194.627L78.0373 191.51C78.0744 191.473 78.1039 191.429 78.1241 191.38C78.1442 191.332 78.1545 191.28 78.1545 191.227C78.1545 191.175 78.1442 191.123 78.1241 191.075C78.1039 191.026 78.0744 190.982 78.0373 190.945L74.9254 187.828C74.8885 187.791 74.8446 187.761 74.7962 187.741C74.7479 187.721 74.696 187.711 74.6436 187.711C74.5913 187.711 74.5394 187.721 74.491 187.741C74.4427 187.761 74.3988 187.791 74.3619 187.828L71.25 190.945C71.2128 190.982 71.1833 191.026 71.1632 191.075C71.143 191.123 71.1327 191.175 71.1327 191.227C71.1327 191.28 71.143 191.332 71.1632 191.38C71.1833 191.429 71.2128 191.473 71.25 191.51L74.3619 194.627Z" stroke="#105EFB" stroke-width="1.6" stroke-miterlimit="10" stroke-linecap="round"/>
<path d="M74.656 188.602L77.2504 191.201L74.656 193.799L72.0617 191.201L74.656 188.602Z" fill="#105EFB"/>
<path d="M173.977 211.633C174.07 211.723 174.194 211.774 174.323 211.774C174.452 211.774 174.577 211.723 174.669 211.633L178.482 207.804C178.573 207.711 178.623 207.587 178.623 207.457C178.623 207.328 178.573 207.203 178.482 207.111L174.659 203.282C174.614 203.236 174.56 203.2 174.501 203.175C174.441 203.15 174.378 203.137 174.313 203.137C174.249 203.137 174.186 203.15 174.126 203.175C174.067 203.2 174.013 203.236 173.968 203.282L170.158 207.111C170.112 207.156 170.076 207.21 170.051 207.27C170.026 207.329 170.014 207.393 170.014 207.457C170.014 207.522 170.026 207.585 170.051 207.645C170.076 207.704 170.112 207.758 170.158 207.804L173.977 211.633Z" stroke="#105EFB" stroke-width="1.96" stroke-miterlimit="10" stroke-linecap="round"/>
<path d="M174.33 204.249L177.515 207.439L174.33 210.63L171.144 207.439L174.33 204.249Z" fill="#105EFB"/>
<path d="M72.9661 310.009C73.1005 310.143 73.2824 310.218 73.472 310.218C73.6615 310.218 73.8434 310.143 73.9778 310.009L79.5741 304.403C79.7076 304.269 79.7826 304.088 79.7826 303.898C79.7826 303.709 79.7076 303.527 79.5741 303.393L73.9778 297.788C73.8434 297.654 73.6615 297.578 73.472 297.578C73.2824 297.578 73.1005 297.654 72.9661 297.788L67.373 303.393C67.3061 303.459 67.253 303.538 67.2168 303.624C67.1805 303.711 67.1618 303.804 67.1618 303.898C67.1618 303.992 67.1805 304.085 67.2168 304.172C67.253 304.259 67.3061 304.337 67.373 304.403L72.9661 310.009Z" stroke="#105EFB" stroke-width="2.87" stroke-miterlimit="10" stroke-linecap="round"/>
<path d="M73.4767 299.215L78.1379 303.884L73.4768 308.553L68.8156 303.884L73.4767 299.215Z" fill="#105EFB"/>
<path d="M214.147 347.984C214.239 348.075 214.362 348.126 214.491 348.126C214.62 348.126 214.744 348.075 214.835 347.984L218.677 344.155C218.768 344.063 218.819 343.939 218.819 343.809C218.819 343.68 218.768 343.555 218.677 343.463L214.835 339.634C214.79 339.588 214.737 339.552 214.678 339.527C214.619 339.502 214.555 339.49 214.491 339.49C214.427 339.49 214.364 339.502 214.305 339.527C214.246 339.552 214.192 339.588 214.147 339.634L210.324 343.463C210.279 343.508 210.242 343.562 210.218 343.621C210.193 343.681 210.18 343.745 210.18 343.809C210.18 343.874 210.193 343.937 210.218 343.997C210.242 344.056 210.279 344.11 210.324 344.155L214.147 347.984Z" stroke="#105EFB" stroke-width="1.96" stroke-miterlimit="10" stroke-linecap="round"/>
<path d="M214.49 340.65L217.676 343.84L214.491 347.031L211.305 343.841L214.49 340.65Z" fill="#105EFB"/>
<path d="M281.798 330.693C281.934 330.828 282.117 330.904 282.309 330.904C282.5 330.904 282.684 330.828 282.819 330.693L288.489 325.027C288.625 324.89 288.701 324.706 288.701 324.514C288.701 324.321 288.625 324.137 288.489 324L282.819 318.324C282.684 318.189 282.5 318.113 282.309 318.113C282.117 318.113 281.934 318.189 281.798 318.324L276.128 323.988C275.993 324.124 275.917 324.308 275.917 324.501C275.917 324.693 275.993 324.877 276.128 325.014L281.798 330.693Z" stroke="#105EFB" stroke-width="2.91" stroke-miterlimit="10" stroke-linecap="round"/>
<path d="M282.31 319.747L287.032 324.477L282.31 329.208L277.587 324.477L282.31 319.747Z" fill="#105EFB"/>
<path d="M328.208 359.612C328.368 359.773 328.558 359.901 328.767 359.988C328.977 360.075 329.201 360.12 329.428 360.12C329.654 360.12 329.879 360.075 330.088 359.988C330.297 359.901 330.488 359.773 330.648 359.612L344.142 346.096C344.465 345.771 344.646 345.332 344.646 344.874C344.646 344.416 344.465 343.977 344.142 343.652L330.648 330.135C330.324 329.812 329.885 329.631 329.428 329.631C328.971 329.631 328.532 329.812 328.208 330.135L314.714 343.652C314.391 343.977 314.21 344.416 314.21 344.874C314.21 345.332 314.391 345.771 314.714 346.096L328.208 359.612Z" stroke="#105EFB" stroke-width="6.93" stroke-miterlimit="10" stroke-linecap="round"/>
<path d="M329.424 333.598L340.667 344.859L329.424 356.12L318.182 344.859L329.424 333.598Z" fill="#105EFB"/>
<path d="M79.4362 62.7066C79.4815 62.7524 79.5353 62.7887 79.5946 62.8135C79.654 62.8383 79.7177 62.8511 79.782 62.8511C79.8463 62.8511 79.9099 62.8383 79.9693 62.8135C80.0286 62.7887 80.0825 62.7524 80.1277 62.7066L83.9503 58.8584C84.0411 58.766 84.0919 58.6416 84.0919 58.5121C84.0919 58.3825 84.0411 58.2581 83.9503 58.1657L80.1277 54.3367C80.0355 54.2459 79.9113 54.1949 79.782 54.1949C79.6526 54.1949 79.5284 54.2459 79.4362 54.3367L75.6136 58.1657C75.5679 58.211 75.5316 58.265 75.5069 58.3244C75.4821 58.3839 75.4694 58.4477 75.4694 58.5121C75.4694 58.5765 75.4821 58.6402 75.5069 58.6997C75.5316 58.7591 75.5679 58.8131 75.6136 58.8584L79.4362 62.7066Z" stroke="#105EFB" stroke-width="1.96" stroke-miterlimit="10" stroke-linecap="round"/>
<path d="M79.7945 55.3209L82.9797 58.5114L79.7945 61.7018L76.6093 58.5114L79.7945 55.3209Z" fill="#105EFB"/>
</g>
</svg>
