<svg width="273" height="101" viewBox="0 0 273 101" fill="none" xmlns="http://www.w3.org/2000/svg">
<g opacity="0.5">
<g opacity="0.7">
<g style="mix-blend-mode:multiply">
<path d="M30.8114 7.73157H28.3848L27.1753 9.82903L28.3848 11.9342H30.8114L32.0286 9.82903L30.8114 7.73157Z" fill="#105EFB"/>
</g>
<g style="mix-blend-mode:multiply">
<path d="M81.9007 7.93054H79.3439L78.0656 10.1428L79.3439 12.3628H81.9007L83.1791 10.1428L81.9007 7.93054Z" fill="#105EFB"/>
</g>
<g style="mix-blend-mode:multiply">
<path d="M90.13 35.2053H74.8353L67.1803 48.4561L74.8353 61.7069H90.13L97.7773 48.4561L90.13 35.2053Z" fill="#105EFB"/>
</g>
<g style="mix-blend-mode:multiply">
<path d="M30.4669 64.899H11.5437L2.08215 81.2884L11.5437 97.6701H30.4669L39.9285 81.2884L30.4669 64.899Z" fill="#105EFB"/>
</g>
<g style="mix-blend-mode:multiply">
<path d="M75.616 17.8208H70.4413L67.8539 22.299L70.4413 26.7848H75.616L78.2034 22.299L75.616 17.8208Z" fill="#105EFB"/>
</g>
<g style="mix-blend-mode:multiply">
<path d="M214.707 55.8967H210.673L208.652 59.3874L210.673 62.8857H214.707L216.728 59.3874L214.707 55.8967Z" fill="#105EFB"/>
</g>
<g style="mix-blend-mode:multiply">
<path d="M43.557 75.4706H34.9757L30.6813 82.9036L34.9757 90.3366H43.557L47.8514 82.9036L43.557 75.4706Z" fill="#105EFB"/>
</g>
<g style="mix-blend-mode:multiply">
<path d="M210.474 72.156H208.116L206.93 74.1999L208.116 76.2361H210.474L211.653 74.1999L210.474 72.156Z" fill="#105EFB"/>
</g>
<g style="mix-blend-mode:multiply">
<path d="M134.085 19.1375H131.352L129.99 21.5028L131.352 23.8682H134.085L135.448 21.5028L134.085 19.1375Z" fill="#105EFB"/>
</g>
<g style="mix-blend-mode:multiply">
<path d="M188.979 77.1853H175.231L168.356 89.0888L175.231 101H188.979L195.861 89.0888L188.979 77.1853Z" fill="#105EFB"/>
</g>
<g style="mix-blend-mode:multiply">
<path d="M130.02 66.4148H110.163L100.234 83.6079L110.163 100.801H130.02L139.949 83.6079L130.02 66.4148Z" fill="#105EFB"/>
</g>
<g style="mix-blend-mode:multiply">
<path d="M167.269 41.2451H159.882L156.185 47.6447L159.882 54.0443H167.269L170.967 47.6447L167.269 41.2451Z" fill="#105EFB"/>
</g>
<g style="mix-blend-mode:multiply">
<path d="M182.036 61.4773H164.299L155.427 76.8409L164.299 92.2045H182.036L190.908 76.8409L182.036 61.4773Z" fill="#105EFB"/>
</g>
<g style="mix-blend-mode:multiply">
<path d="M46.5195 53.3629H43.0824L41.3677 56.333L43.0824 59.3108H46.5195L48.2342 56.333L46.5195 53.3629Z" fill="#105EFB"/>
</g>
<g style="mix-blend-mode:multiply">
<path d="M144.748 55.3379H136.213L131.941 62.7326L136.213 70.1273H144.748L149.02 62.7326L144.748 55.3379Z" fill="#105EFB"/>
</g>
<g style="mix-blend-mode:multiply">
<path d="M114.534 42.9905H109.183L106.504 47.6294L109.183 52.2683H114.534L117.213 47.6294L114.534 42.9905Z" fill="#105EFB"/>
</g>
<g style="mix-blend-mode:multiply">
<path d="M87.4737 82.5515H81.2884L78.1958 87.91L81.2884 93.2608H87.4737L90.5586 87.91L87.4737 82.5515Z" fill="#105EFB"/>
</g>
<g style="mix-blend-mode:multiply">
<path d="M31.5004 0H12.1945L2.5415 16.7185L12.1945 33.437H31.5004L41.1533 16.7185L31.5004 0Z" fill="#105EFB"/>
</g>
<g style="mix-blend-mode:multiply">
<path d="M67.6702 7.98413H64.8684L63.4752 10.4031L64.8684 12.8297H67.6702L69.071 10.4031L67.6702 7.98413Z" fill="#105EFB"/>
</g>
<g style="mix-blend-mode:multiply">
<path d="M67.6242 35.167H50.8062L42.401 49.7268L50.8062 64.2942H67.6242L76.0294 49.7268L67.6242 35.167Z" fill="#105EFB"/>
</g>
<g style="mix-blend-mode:multiply">
<path d="M114.679 65.0139H111.526L109.941 67.7468L111.526 70.4872H114.679L116.264 67.7468L114.679 65.0139Z" fill="#105EFB"/>
</g>
<g style="mix-blend-mode:multiply">
<path d="M87.2899 60.0535H69.5839L60.7347 75.3864L69.5839 90.7194H87.2899L96.1467 75.3864L87.2899 60.0535Z" fill="#105EFB"/>
</g>
<g style="mix-blend-mode:multiply">
<path d="M161.222 85.4987H158.642L157.348 87.7339L158.642 89.9692H161.222L162.508 87.7339L161.222 85.4987Z" fill="#105EFB"/>
</g>
<g style="mix-blend-mode:multiply">
<path d="M15.5932 62.4954H10.9849L8.68079 66.4836L10.9849 70.4719H15.5932L17.8974 66.4836L15.5932 62.4954Z" fill="#105EFB"/>
</g>
<g style="mix-blend-mode:multiply">
<path d="M150.061 72.0947H140.576L135.823 80.3162L140.576 88.53H150.061L154.815 80.3162L150.061 72.0947Z" fill="#105EFB"/>
</g>
<g style="mix-blend-mode:multiply">
<path d="M215.932 82.1764H206.754L202.168 90.1223L206.754 98.0681H215.932L220.517 90.1223L215.932 82.1764Z" fill="#105EFB"/>
</g>
<g style="mix-blend-mode:multiply">
<path d="M238.683 67.9152H234.947L233.072 71.1532L234.947 74.3913H238.683L240.55 71.1532L238.683 67.9152Z" fill="#105EFB"/>
</g>
<g style="mix-blend-mode:multiply">
<path d="M41.1378 37.6549H34.8837L31.7528 43.067L34.8837 48.4791H41.1378L44.2611 43.067L41.1378 37.6549Z" fill="#105EFB"/>
</g>
<g style="mix-blend-mode:multiply">
<path d="M12.5772 4.02649H4.66198L0.704346 10.8854L4.66198 17.7442H12.5772L16.5349 10.8854L12.5772 4.02649Z" fill="#105EFB"/>
</g>
<g style="mix-blend-mode:multiply">
<path d="M57.4891 79.4205H53.1334L50.9594 83.1868L53.1334 86.953H57.4891L59.6631 83.1868L57.4891 79.4205Z" fill="#105EFB"/>
</g>
<g style="mix-blend-mode:multiply">
<g style="mix-blend-mode:multiply">
<path d="M186.284 62.3423L188.252 65.7564L186.284 69.1705H182.342L180.375 65.7564L182.342 62.3423H186.284ZM186.43 62.082H182.181L180.061 65.7564L182.181 69.4232H186.414L188.535 65.7564L186.414 62.082H186.43Z" fill="#105EFB"/>
</g>
</g>
<g style="mix-blend-mode:multiply">
<g style="mix-blend-mode:multiply">
<path d="M100.41 57.6727L102.891 61.9595L100.41 66.2463H95.4577L92.9851 61.9595L95.4577 57.6727H100.41ZM100.594 57.3512H95.2357L92.5718 61.9442L95.2357 66.5372H100.594L103.258 61.9442L100.594 57.3512Z" fill="#105EFB"/>
</g>
</g>
<g style="mix-blend-mode:multiply">
<g style="mix-blend-mode:multiply">
<path d="M202.995 61.5844L212.449 77.9661L202.995 94.3401H184.088L174.634 77.9661L184.088 61.5844H202.995ZM203.707 60.3596H183.383L173.217 77.9661L183.383 95.5726H203.707L213.873 77.9661L203.707 60.3596Z" fill="#105EFB"/>
</g>
</g>
<g style="mix-blend-mode:multiply">
<g style="mix-blend-mode:multiply">
<path d="M107.499 84.6566L111.372 91.37L107.499 98.0911H99.7445L95.8634 91.37L99.7445 84.6566H107.499ZM107.79 84.1514H99.4536L95.2816 91.37L99.4536 98.5963H107.79L111.954 91.37L107.79 84.1514Z" fill="#105EFB"/>
</g>
</g>
<g style="mix-blend-mode:multiply">
<g style="mix-blend-mode:multiply">
<path d="M43.1512 19.1374L45.1568 22.6358L43.1435 26.1265H39.1247L37.1114 22.6358L39.1247 19.1374H43.1512ZM43.3043 18.8695H38.9792L36.8129 22.6205L38.9792 26.3714H43.3043L45.4707 22.6205L43.3043 18.8695Z" fill="#105EFB"/>
</g>
</g>
<g style="mix-blend-mode:multiply">
<g style="mix-blend-mode:multiply">
<path d="M101.367 75.5318L103.105 78.5479L101.367 81.5563H97.892L96.1543 78.5479L97.892 75.5318H101.367ZM101.497 75.3098H97.7619L95.894 78.5479L97.7619 81.7783H101.497L103.373 78.5479L101.497 75.3098Z" fill="#105EFB"/>
</g>
</g>
<g style="mix-blend-mode:multiply">
<g style="mix-blend-mode:multiply">
<path d="M94.6692 10.0511L95.8558 12.1026L94.6692 14.1618H92.2885L91.0867 12.1026L92.2732 10.0511H94.6539H94.6692ZM94.7381 9.89795H92.189L90.9106 12.1026L92.189 14.3149H94.7381L96.0165 12.1026L94.7381 9.89795Z" fill="#105EFB"/>
</g>
</g>
<g style="mix-blend-mode:multiply">
<g style="mix-blend-mode:multiply">
<path d="M55.1618 55.5446L63.3297 69.6605L55.1618 83.8299H38.8337L30.6658 69.6605L38.8337 55.5217H55.1618V55.5446ZM55.7742 54.4576H38.2213L29.441 69.6605L38.2213 84.8939H55.7742L64.5545 69.6605L55.7742 54.4806V54.4576Z" fill="#105EFB"/>
</g>
</g>
<g style="mix-blend-mode:multiply">
<g style="mix-blend-mode:multiply">
<path d="M64.1642 65.5038L65.2588 67.3639L64.1642 69.2547H61.9978L60.9032 67.3639L61.9978 65.5038H64.1718H64.1642ZM64.256 65.366H61.906L60.7347 67.3639L61.906 69.3925H64.2484L65.4196 67.3639L64.2484 65.343L64.256 65.366Z" fill="#105EFB"/>
</g>
</g>
<g style="mix-blend-mode:multiply">
<g style="mix-blend-mode:multiply">
<path d="M235.261 72.5464L241.247 82.9189L235.261 93.2838H223.289L217.302 82.9189L223.289 72.5464H235.261ZM235.705 71.7809H222.837L216.399 82.9342L222.837 94.0799H235.705L242.143 82.9342L235.705 71.7809Z" fill="#105EFB"/>
</g>
</g>
<g style="mix-blend-mode:multiply">
<g style="mix-blend-mode:multiply">
<path d="M33.6743 38.8874L42.9062 54.871L33.6743 70.8623H15.2334L6.0015 54.871L15.2334 38.8874H33.6743ZM34.3709 37.6855H14.5368L4.58533 54.871L14.5368 72.0641H34.3939L44.3454 54.871L34.3939 37.6855H34.3709Z" fill="#105EFB"/>
</g>
</g>
<g style="mix-blend-mode:multiply">
<g style="mix-blend-mode:multiply">
<path d="M67.4175 89.6477L68.4739 91.4849L67.4175 93.3297H65.2971L64.2331 91.4849L65.2971 89.6477H67.4175ZM67.4941 89.5099H65.1976L64.057 91.4849L65.1976 93.4675H67.4941L68.6347 91.4849L67.4941 89.5099Z" fill="#105EFB"/>
</g>
</g>
<g style="mix-blend-mode:multiply">
<g style="mix-blend-mode:multiply">
<path d="M28.7827 32.6562L30.0305 34.8149L28.7827 36.9736H26.2872L25.0394 34.8149L26.2872 32.6562H28.7827ZM28.8746 32.4878H26.1953L24.8557 34.7843L26.1953 37.0808H28.8746L30.2142 34.7843L28.8746 32.4878Z" fill="#105EFB"/>
</g>
</g>
<g style="mix-blend-mode:multiply">
<g style="mix-blend-mode:multiply">
<path d="M173.309 54.3964L174.626 56.6929L173.309 58.9894H170.699L169.382 56.6929L170.699 54.3964H173.34H173.309ZM173.432 54.228H170.599L169.168 56.647L170.576 59.1042H173.409L174.825 56.647L173.409 54.1974L173.432 54.228Z" fill="#105EFB"/>
</g>
</g>
<g style="mix-blend-mode:multiply">
<g style="mix-blend-mode:multiply">
<path d="M134.284 86.7846L136.58 90.7499L134.284 94.7152H129.691L127.394 90.7499L129.691 86.7846H134.284ZM134.46 86.4861H129.538L127.065 90.7499L129.53 95.0137H134.452L136.91 90.7499L134.46 86.5014V86.4861Z" fill="#105EFB"/>
</g>
</g>
<g style="mix-blend-mode:multiply">
<g style="mix-blend-mode:multiply">
<path d="M7.84637 46.6265L10.3419 50.9363L7.84637 55.2537H2.86297L0.375095 50.9363L2.86297 46.6265H7.84637ZM8.03774 46.2974H2.67925L0 50.9363L2.67925 55.5829H8.03774L10.7093 50.9363L8.03009 46.2974H8.03774Z" fill="#105EFB"/>
</g>
</g>
<g style="mix-blend-mode:multiply">
<g style="mix-blend-mode:multiply">
<path d="M142.13 36.1545L150.428 50.5229L142.13 64.899H125.534L117.221 50.5229L125.534 36.1545H142.138H142.13ZM142.758 35.0752H124.899L115.981 50.5229L124.899 65.986H142.75L151.676 50.5229L142.75 35.0675L142.758 35.0752Z" fill="#105EFB"/>
</g>
</g>
<g style="mix-blend-mode:multiply">
<g style="mix-blend-mode:multiply">
<path d="M105.915 19.3825L111.319 28.7522L105.915 38.1143H95.0981L89.6936 28.7522L95.0981 19.3825H105.915ZM106.32 18.6859H94.6923L88.8822 28.7522L94.6923 38.8186H106.32L112.13 28.7522L106.32 18.6859Z" fill="#105EFB"/>
</g>
</g>
<g style="mix-blend-mode:multiply">
<g style="mix-blend-mode:multiply">
<path d="M129.101 51.5947L130.319 53.7075L129.101 55.8203H126.66L125.442 53.7075L126.66 51.5947H129.101ZM129.193 51.434H126.568L125.259 53.7305L126.568 56.027H129.193L130.502 53.7305L129.193 51.434Z" fill="#105EFB"/>
</g>
</g>
<g style="mix-blend-mode:multiply">
<g style="mix-blend-mode:multiply">
<path d="M161.635 66.5372L163.051 68.9945L161.635 71.4441H158.803L157.387 68.9945L158.803 66.5372H161.635ZM161.742 66.3535H158.68L157.149 68.9945L158.68 71.6278H161.742L163.273 68.9945L161.742 66.3535Z" fill="#105EFB"/>
</g>
</g>
<g style="mix-blend-mode:multiply">
<g style="mix-blend-mode:multiply">
<path d="M252.5 79.5661L253.664 81.5793L252.5 83.5926H250.203L249.04 81.5793L250.203 79.5661H252.5ZM252.584 79.413H250.081L248.833 81.5793L250.081 83.7457H252.607L253.863 81.5793L252.607 79.413H252.584Z" fill="#105EFB"/>
</g>
</g>
<g style="mix-blend-mode:multiply">
<g style="mix-blend-mode:multiply">
<path d="M130.303 8.05308C130.443 8.05308 130.556 7.93998 130.556 7.80047C130.556 7.66095 130.443 7.54785 130.303 7.54785C130.164 7.54785 130.051 7.66095 130.051 7.80047C130.051 7.93998 130.164 8.05308 130.303 8.05308Z" fill="#105EFB"/>
</g>
</g>
<g style="mix-blend-mode:multiply">
<g style="mix-blend-mode:multiply">
<path d="M107.867 8.46642C107.874 8.62082 107.835 8.77389 107.754 8.90548C107.672 9.03707 107.553 9.14102 107.412 9.20365C107.271 9.26627 107.114 9.28464 106.962 9.25634C106.81 9.22803 106.67 9.15438 106.561 9.04507C106.451 8.93576 106.378 8.79592 106.349 8.64395C106.321 8.49198 106.339 8.33499 106.402 8.19366C106.465 8.05233 106.569 7.93327 106.7 7.85215C106.832 7.77103 106.985 7.73165 107.139 7.73919C107.329 7.74847 107.509 7.82807 107.643 7.96249C107.778 8.09691 107.857 8.27654 107.867 8.46642Z" fill="#105EFB"/>
</g>
</g>
<g style="mix-blend-mode:multiply">
<g style="mix-blend-mode:multiply">
<path d="M272.549 81.7171C272.549 81.7922 272.519 81.8642 272.466 81.9173C272.412 81.9704 272.34 82.0003 272.265 82.0003C272.191 81.9984 272.12 81.9679 272.067 81.9152C272.014 81.8625 271.984 81.7916 271.982 81.7171C271.982 81.6799 271.989 81.643 272.004 81.6087C272.018 81.5743 272.039 81.5431 272.065 81.5168C272.091 81.4905 272.123 81.4696 272.157 81.4554C272.191 81.4412 272.228 81.4338 272.265 81.4338C272.303 81.4328 272.34 81.4394 272.375 81.4532C272.41 81.4671 272.441 81.4879 272.468 81.5144C272.494 81.5409 272.515 81.5726 272.529 81.6074C272.543 81.6423 272.55 81.6796 272.549 81.7171Z" fill="#105EFB"/>
</g>
</g>
<g style="mix-blend-mode:multiply">
<g style="mix-blend-mode:multiply">
<path d="M199.688 58.7903C199.688 59.1173 199.591 59.437 199.41 59.7089C199.228 59.9809 198.97 60.1928 198.667 60.3179C198.365 60.4431 198.033 60.4758 197.712 60.412C197.391 60.3482 197.097 60.1907 196.866 59.9595C196.634 59.7283 196.477 59.4336 196.413 59.1129C196.349 58.7922 196.382 58.4597 196.507 58.1576C196.632 57.8554 196.844 57.5972 197.116 57.4155C197.388 57.2338 197.708 57.1368 198.035 57.1368C198.473 57.1368 198.894 57.311 199.204 57.6211C199.514 57.9312 199.688 58.3518 199.688 58.7903Z" fill="#105EFB"/>
</g>
</g>
<g style="mix-blend-mode:multiply">
<g style="mix-blend-mode:multiply">
<path d="M153.429 55.4834C153.653 55.4834 153.835 55.3018 153.835 55.0777C153.835 54.8536 153.653 54.672 153.429 54.672C153.205 54.672 153.023 54.8536 153.023 55.0777C153.023 55.3018 153.205 55.4834 153.429 55.4834Z" fill="#105EFB"/>
</g>
</g>
<g style="mix-blend-mode:multiply">
<g style="mix-blend-mode:multiply">
<path d="M243.812 91.8141C243.812 91.861 243.798 91.9069 243.772 91.9459C243.745 91.9849 243.708 92.0154 243.665 92.0333C243.622 92.0513 243.574 92.056 243.528 92.0468C243.482 92.0377 243.44 92.0151 243.406 91.9819C243.373 91.9487 243.351 91.9064 243.341 91.8604C243.332 91.8144 243.337 91.7666 243.355 91.7233C243.373 91.6799 243.403 91.6429 243.442 91.6168C243.481 91.5907 243.527 91.5768 243.574 91.5768C243.637 91.5768 243.697 91.6018 243.742 91.6463C243.787 91.6908 243.812 91.7511 243.812 91.8141Z" fill="#105EFB"/>
</g>
</g>
<g style="mix-blend-mode:multiply">
<g style="mix-blend-mode:multiply">
<path d="M10.1888 87.5732C10.1903 87.8509 10.1092 88.1228 9.9559 88.3543C9.80255 88.5859 9.58385 88.7666 9.32756 88.8736C9.07128 88.9805 8.78898 89.0089 8.51653 88.9551C8.24407 88.9013 7.99376 88.7677 7.79739 88.5714C7.60102 88.375 7.46744 88.1247 7.41363 87.8522C7.35982 87.5798 7.38821 87.2975 7.49519 87.0412C7.60216 86.7849 7.7829 86.5662 8.01444 86.4129C8.24598 86.2595 8.51787 86.1784 8.79558 86.18C9.16447 86.182 9.51767 86.3294 9.77851 86.5902C10.0394 86.8511 10.1868 87.2043 10.1888 87.5732Z" fill="#105EFB"/>
</g>
</g>
<g style="mix-blend-mode:multiply">
<g style="mix-blend-mode:multiply">
<path d="M51.3574 34.7231C51.3574 34.782 51.3341 34.8384 51.2924 34.8801C51.2508 34.9217 51.1943 34.9451 51.1354 34.9451C51.0766 34.9451 51.0201 34.9217 50.9785 34.8801C50.9368 34.8384 50.9135 34.782 50.9135 34.7231C50.9135 34.6939 50.9192 34.6651 50.9304 34.6381C50.9415 34.6112 50.9579 34.5867 50.9785 34.5661C50.9991 34.5455 51.0236 34.5291 51.0505 34.518C51.0774 34.5068 51.1063 34.5011 51.1354 34.5011C51.1646 34.5011 51.1935 34.5068 51.2204 34.518C51.2473 34.5291 51.2718 34.5455 51.2924 34.5661C51.313 34.5867 51.3294 34.6112 51.3405 34.6381C51.3517 34.6651 51.3574 34.6939 51.3574 34.7231Z" fill="#105EFB"/>
</g>
</g>
<g style="mix-blend-mode:multiply">
<g style="mix-blend-mode:multiply">
<path d="M31.9672 68.183C31.9672 68.4436 31.8902 68.6984 31.746 68.9155C31.6018 69.1326 31.3967 69.3023 31.1565 69.4033C30.9163 69.5044 30.6516 69.5324 30.3956 69.4837C30.1396 69.435 29.9036 69.3119 29.7172 69.1297C29.5309 68.9476 29.4024 68.7145 29.3479 68.4597C29.2934 68.2048 29.3153 67.9396 29.4108 67.6971C29.5064 67.4546 29.6714 67.2458 29.8851 67.0966C30.0988 66.9475 30.3518 66.8647 30.6123 66.8587C30.789 66.8536 30.965 66.8841 31.1297 66.9484C31.2944 67.0128 31.4445 67.1096 31.5709 67.2332C31.6974 67.3568 31.7976 67.5046 31.8657 67.6678C31.9338 67.831 31.9683 68.0062 31.9672 68.183Z" fill="#105EFB"/>
</g>
</g>
<g style="mix-blend-mode:multiply">
<g style="mix-blend-mode:multiply">
<path d="M151.936 42.5694C152.258 42.5694 152.518 42.309 152.518 41.9877C152.518 41.6664 152.258 41.4059 151.936 41.4059C151.615 41.4059 151.354 41.6664 151.354 41.9877C151.354 42.309 151.615 42.5694 151.936 42.5694Z" fill="#105EFB"/>
</g>
</g>
<g style="mix-blend-mode:multiply">
<g style="mix-blend-mode:multiply">
<path d="M15.2717 42.3321C15.5507 42.3321 15.7769 42.1059 15.7769 41.8269C15.7769 41.5479 15.5507 41.3217 15.2717 41.3217C14.9927 41.3217 14.7665 41.5479 14.7665 41.8269C14.7665 42.1059 14.9927 42.3321 15.2717 42.3321Z" fill="#105EFB"/>
</g>
</g>
<g style="mix-blend-mode:multiply">
<g style="mix-blend-mode:multiply">
<path d="M229.688 56.8996C229.687 57.0779 229.632 57.2518 229.532 57.3993C229.432 57.5469 229.29 57.6615 229.125 57.7286C228.96 57.7958 228.779 57.8126 228.604 57.7769C228.429 57.7412 228.269 57.6546 228.143 57.528C228.018 57.4013 227.933 57.2404 227.898 57.0654C227.864 56.8904 227.882 56.7091 227.951 56.5445C228.02 56.3799 228.135 56.2393 228.284 56.1404C228.432 56.0414 228.607 55.9887 228.785 55.9886C228.904 55.9886 229.022 56.0123 229.132 56.0581C229.242 56.104 229.342 56.1712 229.426 56.2559C229.51 56.3406 229.577 56.4411 229.622 56.5516C229.667 56.662 229.689 56.7803 229.688 56.8996Z" fill="#105EFB"/>
</g>
</g>
<g style="mix-blend-mode:multiply">
<g style="mix-blend-mode:multiply">
<path d="M52.8884 13.0135C52.8884 13.1982 52.8337 13.3788 52.7311 13.5324C52.6284 13.6859 52.4826 13.8056 52.3119 13.8763C52.1413 13.947 51.9535 13.9655 51.7723 13.9295C51.5912 13.8934 51.4248 13.8045 51.2942 13.6739C51.1636 13.5433 51.0746 13.3769 51.0386 13.1957C51.0025 13.0145 51.021 12.8268 51.0917 12.6561C51.1624 12.4855 51.2821 12.3396 51.4357 12.237C51.5893 12.1344 51.7698 12.0796 51.9545 12.0796C52.2016 12.0816 52.438 12.1806 52.6127 12.3553C52.7874 12.53 52.8864 12.7664 52.8884 13.0135Z" fill="#105EFB"/>
</g>
</g>
<g style="mix-blend-mode:multiply">
<g style="mix-blend-mode:multiply">
<path d="M128.474 70.7399C128.605 70.7399 128.711 70.6336 128.711 70.5026C128.711 70.3715 128.605 70.2653 128.474 70.2653C128.343 70.2653 128.236 70.3715 128.236 70.5026C128.236 70.6336 128.343 70.7399 128.474 70.7399Z" fill="#105EFB"/>
</g>
</g>
<g style="mix-blend-mode:multiply">
<g style="mix-blend-mode:multiply">
<path d="M82.3524 36.3918C82.3413 36.4599 82.3063 36.5218 82.2537 36.5665C82.2011 36.6111 82.1344 36.6357 82.0654 36.6357C81.9964 36.6357 81.9296 36.6111 81.8771 36.5665C81.8245 36.5218 81.7895 36.4599 81.7783 36.3918C81.7895 36.3237 81.8245 36.2618 81.8771 36.2171C81.9296 36.1725 81.9964 36.1479 82.0654 36.1479C82.1344 36.1479 82.2011 36.1725 82.2537 36.2171C82.3063 36.2618 82.3413 36.3237 82.3524 36.3918Z" fill="#105EFB"/>
</g>
</g>
<g style="mix-blend-mode:multiply">
<g style="mix-blend-mode:multiply">
<path d="M117.022 16.6113C117.758 16.6113 118.354 16.015 118.354 15.2794C118.354 14.5437 117.758 13.9474 117.022 13.9474C116.286 13.9474 115.69 14.5437 115.69 15.2794C115.69 16.015 116.286 16.6113 117.022 16.6113Z" fill="#105EFB"/>
</g>
</g>
<g style="mix-blend-mode:multiply">
<g style="mix-blend-mode:multiply">
<path d="M7.93054 27.6116C7.93462 27.8041 7.9002 27.9956 7.82932 28.1746C7.75844 28.3537 7.65252 28.5168 7.51776 28.6545C7.38301 28.7921 7.22213 28.9014 7.04457 28.976C6.86702 29.0506 6.67635 29.089 6.48375 29.089C6.09932 29.089 5.73054 28.9368 5.45799 28.6657C5.18545 28.3946 5.03132 28.0266 5.0293 27.6422C5.0293 27.4512 5.06692 27.2621 5.14001 27.0856C5.2131 26.9091 5.32024 26.7488 5.4553 26.6137C5.59035 26.4787 5.75069 26.3715 5.92715 26.2985C6.10361 26.2254 6.29274 26.1877 6.48375 26.1877C6.86292 26.1897 7.22635 26.3396 7.4966 26.6055C7.76686 26.8715 7.92256 27.2325 7.93054 27.6116Z" fill="#105EFB"/>
</g>
</g>
</g>
</g>
</svg>
