<svg id="Слой_2" data-name="Слой 2" xmlns="http://www.w3.org/2000/svg" viewBox="0 0 2732.52 1435.85"><defs><style>.cls-1{fill:#ebf3fa;}.cls-2,.cls-7{fill:#78acea;}.cls-3{fill:#afcdfb;}.cls-4{fill:#5e92dd;opacity:0.4;}.cls-5{fill:#95c0f4;}.cls-6{fill:#8cbaf1;}.cls-7{opacity:0.9;}.cls-8{fill:#fcecdb;}.cls-9{fill:#f99746;}.cls-10{fill:#f9e5d1;}.cls-11{fill:#efcbab;}.cls-12{fill:#b7d3f3;}.cls-13{fill:#d2e3fc;}.cls-14{fill:#c5dcf8;}.cls-15{fill:#ffb27d;}.cls-16{fill:#1c468a;}.cls-17{fill:#163560;}.cls-18{fill:#b5453c;}.cls-19{fill:#ed975d;}.cls-20{fill:#fff;}.cls-21{fill:#ed7d2b;}.cls-22{fill:#f9ddbf;}.cls-23{fill:#ed893e;}.cls-24{fill:#2e3552;}.cls-25{fill:#233862;}.cls-26{fill:#2a4e96;}.cls-27{fill:#ed985f;}.cls-28{fill:#2c3a64;}</style></defs><path class="cls-1" d="M349.37,1738.11s-318-341.39-53.77-711C530,699.19,803.3,721.6,1003.81,854.68c85.4,56.68,331.62,7,541.18-326.7,285.78-455,1276.42-179.06,1095.8,521.06-87.41,338.8,266,351.12,85.93,689.79Z" transform="translate(-120.48 -305.24)"/><rect class="cls-2" x="1258.05" y="230.01" width="632.24" height="1199.64" rx="32.35"/><path class="cls-3" d="M2044.19,567.6V1702.54a32.45,32.45,0,0,1-32.36,32.34H1444.3a32.44,32.44,0,0,1-32.35-32.34V567.6a32.44,32.44,0,0,1,32.35-32.36h567.53A32.45,32.45,0,0,1,2044.19,567.6Z" transform="translate(-120.48 -305.24)"/><path class="cls-4" d="M1820.72,580.65H1656.37a6.41,6.41,0,0,1-6.39-6.39h0a6.41,6.41,0,0,1,6.39-6.4h164.35a6.42,6.42,0,0,1,6.4,6.4h0A6.42,6.42,0,0,1,1820.72,580.65Z" transform="translate(-120.48 -305.24)"/><path class="cls-4" d="M1627.18,580.65h0a6.41,6.41,0,0,1-6.39-6.39h0a6.41,6.41,0,0,1,6.39-6.4h0a6.42,6.42,0,0,1,6.4,6.4h0A6.42,6.42,0,0,1,1627.18,580.65Z" transform="translate(-120.48 -305.24)"/><path class="cls-5" d="M1777.14,1668.6a41.24,41.24,0,1,1-41.25-41.24A41.1,41.1,0,0,1,1777.14,1668.6Z" transform="translate(-120.48 -305.24)"/><rect class="cls-5" x="1329.32" y="303.91" width="560.65" height="997.94"/><path class="cls-6" d="M1765.18,1697.63a41.24,41.24,0,1,1-51.39-63.84C1717.83,1651.34,1729.82,1680.71,1765.18,1697.63Z" transform="translate(-120.48 -305.24)"/><path class="cls-7" d="M2002.39,728.45H1480.63c-4.43,0-8.06,4.7-8.06,10.45v333.58c0,5.74,3.63,10.44,8.06,10.44h521.76c4.44,0,8.06-4.7,8.06-10.44V738.9C2010.45,733.15,2006.83,728.45,2002.39,728.45Z" transform="translate(-120.48 -305.24)"/><path class="cls-7" d="M1807.73,1133.71H1401c-3.46,0-6.29,4.7-6.29,10.45v333.59c0,5.73,2.83,10.43,6.29,10.43h406.78c3.46,0,6.29-4.7,6.29-10.43V1144.16C1814,1138.41,1811.19,1133.71,1807.73,1133.71Z" transform="translate(-120.48 -305.24)"/><path class="cls-8" d="M2200.74,708.85v333.59a10.47,10.47,0,0,1-10.45,10.43H1514.74a10.46,10.46,0,0,1-10.43-10.43V708.85a10.47,10.47,0,0,1,10.43-10.45h675.55A10.48,10.48,0,0,1,2200.74,708.85Z" transform="translate(-120.48 -305.24)"/><path class="cls-9" d="M2200.73,708.85v333.58c0,5.74-5.46,10.44-12.14,10.44H1852.52V698.4h336.07C2195.27,698.4,2200.73,703.1,2200.73,708.85Z" transform="translate(-120.48 -305.24)"/><path class="cls-8" d="M2017.49,827.89h-118.9a7.6,7.6,0,0,1-7.57-7.58h0a7.6,7.6,0,0,1,7.57-7.57h118.9a7.6,7.6,0,0,1,7.57,7.57h0A7.6,7.6,0,0,1,2017.49,827.89Z" transform="translate(-120.48 -305.24)"/><rect class="cls-8" x="1770.54" y="530.22" width="103.75" height="15.14" rx="6.66"/><path class="cls-8" d="M1900.16,743.05a13.86,13.86,0,0,1,22.28,0c2.85,3.7,4.25,8.32,4.25,13.85s-1.4,10.15-4.25,13.85a13.9,13.9,0,0,1-22.28,0c-2.85-3.7-4.24-8.32-4.24-13.85S1897.31,746.75,1900.16,743.05Zm19.38,2.58a9.74,9.74,0,0,0-16.43,0,18.81,18.81,0,0,0-3.22,11.22,19.25,19.25,0,0,0,3.17,11.28,9.82,9.82,0,0,0,8.27,4.45,9.66,9.66,0,0,0,8.21-4.45,21.26,21.26,0,0,0,0-22.5Z" transform="translate(-120.48 -305.24)"/><path class="cls-8" d="M1957.34,742.08c2.53,3.06,3.82,7.41,3.82,12.94.21,11.71-6.12,21.38-16.33,21.27a13.42,13.42,0,0,1-7.94-2.31v-3.81a13.21,13.21,0,0,0,7.62,2.41c8.91,0,12.62-8.11,12.78-16.05-2,3.38-5.91,5.58-11,5.58a12.26,12.26,0,0,1-8.64-3.33,11.59,11.59,0,0,1-3.49-8.64,12.31,12.31,0,0,1,3.65-9.13,12.54,12.54,0,0,1,9.13-3.6A12.7,12.7,0,0,1,1957.34,742.08Zm-16.69,1.61a8.6,8.6,0,0,0-2.58,6.45,7.77,7.77,0,0,0,2.63,6.17,9.47,9.47,0,0,0,6.55,2.31,10.09,10.09,0,0,0,6.12-2.09,10.41,10.41,0,0,0,3.81-5.21c-.64-6.45-4.18-10.2-10-10.2A9,9,0,0,0,1940.65,743.69Z" transform="translate(-120.48 -305.24)"/><path class="cls-8" d="M1969.1,751.21a2.81,2.81,0,1,1,0,4A2.87,2.87,0,0,1,1969.1,751.21Zm0,20a2.81,2.81,0,1,1,0,4A2.85,2.85,0,0,1,1969.1,771.19Z" transform="translate(-120.48 -305.24)"/><path class="cls-8" d="M1987.68,775.64V742.35l-8.43,4.83v-3.81l8.86-5.31h3.49v37.58Z" transform="translate(-120.48 -305.24)"/><path class="cls-8" d="M2005.29,743.05a13.87,13.87,0,0,1,22.29,0c2.84,3.7,4.24,8.32,4.24,13.85s-1.4,10.15-4.24,13.85a13.91,13.91,0,0,1-22.29,0c-2.84-3.7-4.24-8.32-4.24-13.85S2002.45,746.75,2005.29,743.05Zm19.39,2.58a9.74,9.74,0,0,0-16.43,0,18.81,18.81,0,0,0-3.22,11.22,19.32,19.32,0,0,0,3.16,11.28,9.83,9.83,0,0,0,8.27,4.45,9.68,9.68,0,0,0,8.22-4.45,21.26,21.26,0,0,0,0-22.5Z" transform="translate(-120.48 -305.24)"/><path class="cls-8" d="M2055,775.64V738.06h15.79c7.52,0,12,4.18,12,10.41,0,6.39-4.51,10.58-12,10.58h-11.81v16.59Zm4-20.19h11.54c5.32,0,8.38-2.52,8.38-6.87s-3.06-6.93-8.38-6.93h-11.54Z" transform="translate(-120.48 -305.24)"/><path class="cls-8" d="M2090.67,775.64V738.06h3.92l13.59,18.2,13.58-18.2h3.87v37.58h-3.92V744.07l-12.3,16.43H2107l-12.4-16.43v31.57Z" transform="translate(-120.48 -305.24)"/><path class="cls-10" d="M1704.79,1052.87h-190a10.46,10.46,0,0,1-10.43-10.43V815.75C1556.12,877,1657.56,997,1704.79,1052.87Z" transform="translate(-120.48 -305.24)"/><path class="cls-9" d="M1677.13,742.31a68.87,68.87,0,0,0-68.86,68.87c0,38,68.86,122.58,68.86,122.58S1746,849.21,1746,811.18A68.87,68.87,0,0,0,1677.13,742.31Zm0,100.35a32.19,32.19,0,1,1,32.19-32.18A32.19,32.19,0,0,1,1677.13,842.66Z" transform="translate(-120.48 -305.24)"/><path class="cls-11" d="M1671.34,990.91h-118.9a7.59,7.59,0,0,1-7.57-7.57h0a7.6,7.6,0,0,1,7.57-7.57h118.9a7.6,7.6,0,0,1,7.57,7.57h0A7.59,7.59,0,0,1,1671.34,990.91Z" transform="translate(-120.48 -305.24)"/><rect class="cls-11" x="1424.39" y="693.25" width="103.75" height="15.14" rx="6.66"/><path class="cls-8" d="M1867.16,1118.55v333.58a10.47,10.47,0,0,1-10.44,10.44H1181.18a10.47,10.47,0,0,1-10.45-10.44V1118.55a10.47,10.47,0,0,1,10.45-10.43h675.54A10.46,10.46,0,0,1,1867.16,1118.55Z" transform="translate(-120.48 -305.24)"/><path class="cls-9" d="M1867.16,1118.55v333.58a10.48,10.48,0,0,1-10.44,10.45H1556.26V1108.11h300.46A10.47,10.47,0,0,1,1867.16,1118.55Z" transform="translate(-120.48 -305.24)"/><path class="cls-8" d="M1709.43,1357.59a16.84,16.84,0,0,1-14.54-8.34l-44.4-75.91a16.85,16.85,0,1,1,29.09-17l28.48,48.69,53.64-110.35A16.85,16.85,0,1,1,1792,1209.4l-67.42,138.7a16.86,16.86,0,0,1-14.51,9.48Z" transform="translate(-120.48 -305.24)"/><path class="cls-8" d="M1709.43,1396.64A104.58,104.58,0,1,1,1814,1292.06,104.7,104.7,0,0,1,1709.43,1396.64Zm0-196.91a92.33,92.33,0,1,0,92.33,92.33A92.43,92.43,0,0,0,1709.43,1199.73Z" transform="translate(-120.48 -305.24)"/><path class="cls-10" d="M1368.6,1462.57H1181.18a10.47,10.47,0,0,1-10.45-10.44V1194Z" transform="translate(-120.48 -305.24)"/><path class="cls-9" d="M1261.37,1166a37.46,37.46,0,1,0,37.46,37.46A37.46,37.46,0,0,0,1261.37,1166Zm26,38.65h-26a1.19,1.19,0,0,1-1.19-1.19v-27.9a1.2,1.2,0,1,1,2.39,0v26.7h24.75a1.2,1.2,0,0,1,0,2.39Z" transform="translate(-120.48 -305.24)"/><path class="cls-11" d="M1454.11,1189.49H1335.22a7.6,7.6,0,0,1-7.58-7.57h0a7.6,7.6,0,0,1,7.58-7.58h118.89a7.59,7.59,0,0,1,7.57,7.58h0A7.59,7.59,0,0,1,1454.11,1189.49Z" transform="translate(-120.48 -305.24)"/><rect class="cls-11" x="1207.16" y="891.82" width="103.75" height="15.14" rx="6.66"/><path class="cls-9" d="M1257.63,1311a33.72,33.72,0,0,0-33.72,33.72c0,18.63,33.72,60,33.72,60s33.72-41.4,33.72-60A33.72,33.72,0,0,0,1257.63,1311Zm0,49.14a15.76,15.76,0,1,1,15.76-15.76A15.76,15.76,0,0,1,1257.63,1360.1Z" transform="translate(-120.48 -305.24)"/><path class="cls-11" d="M1445.07,1335.55h-118.9a7.6,7.6,0,0,1-7.57-7.58h0a7.6,7.6,0,0,1,7.57-7.57h118.9a7.6,7.6,0,0,1,7.57,7.57h0A7.6,7.6,0,0,1,1445.07,1335.55Z" transform="translate(-120.48 -305.24)"/><rect class="cls-11" x="1198.12" y="1037.88" width="103.75" height="15.14" rx="6.66"/><path class="cls-12" d="M528,1308.91c-2.48-60.89-7.81-113.86-14.2-150.8-10.19-58.88-19.35-92.76-19.46-93.12-1.34-5.18-20.72-26.13-63.8-25.48s-39,28.12-39,28.12h0a8.62,8.62,0,0,0,.31,2.44c.41,1.42,40,144.82,38.25,330,0,2.6-.32,7.09-.13,10.08,0,0,99.84,2.58,99.86,0C533.34,1393.94,531.64,1349.1,528,1308.91Z" transform="translate(-120.48 -305.24)"/><path class="cls-13" d="M540.57,1399.12c0,2.58-1.39,4.65-3.05,4.65h0c-1.66,0-3-2.1-3-4.65H448.91c0,2.58-1.39,4.65-3.05,4.65h0c-1.69,0-3-2.17-3-4.78a1294.72,1294.72,0,0,0-7.1-146.17c-11.38-108.93-32.4-181.74-32.7-182.75a9,9,0,0,1-.31-2.44s-4.09-27.47,39-28.12,62.47,20.3,63.81,25.48c.08.27,5.27,19.46,12.17,53.94,2.29,11.43,4.76,24.53,7.29,39.18,6.39,36.94,11.72,89.91,14.2,150.79C542.78,1349.1,544.05,1383,540.57,1399.12Z" transform="translate(-120.48 -305.24)"/><path class="cls-14" d="M436.48,1403.77H771.94s-7.81-31.61-202.09-26.9C432.37,1380.2,436.48,1403.77,436.48,1403.77Z" transform="translate(-120.48 -305.24)"/><path class="cls-12" d="M409.18,1734c38.9-196.9,28.89-317.72,28.84-319.25-.09-3,5.49-5.78,8.5-5.88s16.47-.89,18,1.7c2,3.4,9.87,152.27-48.1,323.43Z" transform="translate(-120.48 -305.24)"/><path class="cls-12" d="M722.39,1734c-38.89-196.9-28.89-317.72-28.84-319.25.1-3-5.49-5.78-8.5-5.88s-16.46-.89-18,1.7c-2,3.4-9.87,152.27,48.1,323.43Z" transform="translate(-120.48 -305.24)"/><path class="cls-12" d="M784.46,1734c-38.89-196.9-28.89-317.72-28.84-319.25.1-3-5.49-5.78-8.49-5.88s-16.47-.89-18,1.7c-2,3.4-9.86,152.27,48.1,323.43Z" transform="translate(-120.48 -305.24)"/><path class="cls-12" d="M471.67,1734c38.89-196.9,28.89-317.72,28.84-319.25-.09-3,5.49-5.78,8.5-5.88s16.47-.89,18,1.7c2,3.4,9.87,152.27-48.1,323.43Z" transform="translate(-120.48 -305.24)"/><rect class="cls-12" x="309.33" y="1090.36" width="349.2" height="18.26" rx="6.87"/><path class="cls-15" d="M760.36,1110.91l111.51-24.15,6.56,16s-123,73.21-134.56,69.62S760.36,1110.91,760.36,1110.91Z" transform="translate(-120.48 -305.24)"/><path class="cls-15" d="M659,1615.23c-2.79,3.2-3.15,6.77-1.77,10.59a.09.09,0,0,0,0,.06c2.56,7.06,11,14.95,20.81,22.82,1.25,1,2.37,1.94,3.34,2.79l.75.67c.2.17.39.36.58.52,9.14,8.43,5.7,10.37,22.13,27.48,18.74,19.49,31.64,19.84,35.31,18.07,3.11-1.52-3.2-11.86-10.19-23.48-.34-.56-.67-1.13-1-1.69-.93-1.55-1.85-3.12-2.78-4.67-8.19-14-6.09-20.55-4.14-41.37,1.57-16.91,26.31-94.5,26.31-94.5l-35.91-6.19s-10.81,61.79-22.73,71.3c-6.37,5.07-13.5,5.14-19.62,8.9-.44.26-.86.52-1.28.8C665.32,1609.64,661.78,1612,659,1615.23Z" transform="translate(-120.48 -305.24)"/><path class="cls-16" d="M659,1615.23c-2.79,3.2-3.15,6.77-1.77,10.59a.09.09,0,0,0,0,.06c3.13,7,11.36,14.9,20.84,22.75q1.86,1.55,3.31,2.86l.75.67c.2.17.39.36.58.52,9.14,8.43,5.7,10.37,22.13,27.48,18.74,19.49,31.64,19.84,35.31,18.07,3.11-1.52-3.2-11.86-10.19-23.48a79.89,79.89,0,0,1-33.4-24.61c-11.28-14.4-18.81-32.9-26.49-43.61-.44.26-.86.52-1.28.8C665.32,1609.64,661.78,1612,659,1615.23Z" transform="translate(-120.48 -305.24)"/><path class="cls-15" d="M948.53,1592.8c2.22,11.08,18,9.23,35.67,4.92s13.45.82,38.58-2,32.73-12.14,33.5-15.88c.68-3.31-11.73-4.48-25-6-1.67-.18-3.35-.39-5-.6-15-1.89-26.05-11.59-39.7-19.55-12.94-7.55-32.24-38.29-32.24-38.29l-34.45,2.72s18.08,27.47,25.07,39.4c4.11,7,3.9,16.31,3.38,23.48C948,1584.91,947.74,1588.9,948.53,1592.8Z" transform="translate(-120.48 -305.24)"/><path class="cls-16" d="M984.2,1597.72c17.65-4.31,13.45.82,38.58-2s32.73-12.14,33.5-15.88c.68-3.31-11.73-4.48-25-6l-.12.26a70.85,70.85,0,0,1-36,11.18c-17,.42-35.1-4.47-46.87-4.28-.26,3.9-.52,7.89.27,11.79C950.75,1603.88,966.54,1602,984.2,1597.72Z" transform="translate(-120.48 -305.24)"/><path class="cls-15" d="M871.87,1086.76s8.2-20.11,17.23-20.93,37.76-5.34,39.82-1.24,0,18.89-6.16,24.22-44.33,14-44.33,14Z" transform="translate(-120.48 -305.24)"/><path class="cls-17" d="M816.49,1372.49l-74.25,199.84a68.11,68.11,0,0,1-22.35-2c-10.06-2.9-21.59-10.52-21.59-10.52s18.42-191.87,52.19-231.78S816.49,1372.49,816.49,1372.49Z" transform="translate(-120.48 -305.24)"/><path class="cls-16" d="M522.8,1291.65s213.36-72.14,261-56.79,190.45,299.6,190.45,299.6-3.22,4.29-12,7.59c-8.19,3.07-28,2.87-28,2.87S805.24,1434.4,789.89,1402.17s-21.49-62.93-36.84-59.87-198,75.22-239.46,32.24S483,1275.72,483,1275.72Z" transform="translate(-120.48 -305.24)"/><path class="cls-18" d="M644.44,782.93c-9.22-5.25-20.28-5.82-28-5.36,2-2.06,5.91-2.8,5.91-2.8-4.79-.72-15.49,4-15.49,4-66.69-25.7-77.17,72.49-75.76,95.3s1.55,49.06-31.73,69.52c-65.5,40.25-10.24,110.53-10.24,110.53.52.3,30.48,51.11,30.48,51.11-1.69-18.43,83.36-115.71,127.74-144.84,10.8-15.9,14.64-44,14.93-46.21C660.4,936.5,656.59,949,653.19,956,690.76,921.44,668.88,796.82,644.44,782.93Z" transform="translate(-120.48 -305.24)"/><path class="cls-15" d="M644.71,961.88c.22.1-21.42,11.34-37.71,6.88-15.31-4.17-25.32-24-25.11-24.07,6.49-1.29,8.36-10.21,8.22-48.51l2.93.58,49.31,9.76s-1.13,15.52-1.16,30.14C641.16,948.93,641.9,960.57,644.71,961.88Z" transform="translate(-120.48 -305.24)"/><path class="cls-19" d="M642.35,906.52s-1.13,15.52-1.16,30.14c-27.59-.78-42.17-25.95-48.15-39.9Z" transform="translate(-120.48 -305.24)"/><path class="cls-18" d="M588,891.39S573.49,868.55,570,849c-2.47-13.94,4.63-65.63,56.58-58.19a70.64,70.64,0,0,1,29.26,11.06c11.28,7.62,27.56,24.07,9.36,69.18l-4.73,15.23Z" transform="translate(-120.48 -305.24)"/><path class="cls-15" d="M651.56,920.36s-65.28,1.08-65.32-39.58-8.5-67.91,33.17-70.31,49.79,13.1,53.11,26.67S668.54,919,651.56,920.36Z" transform="translate(-120.48 -305.24)"/><path class="cls-18" d="M649.14,809.47s-17.87,47.7-45.3,54.76-39.32-.3-39.32-.3,21-16.71,25.4-45.89C589.92,818,635.66,786.77,649.14,809.47Z" transform="translate(-120.48 -305.24)"/><path class="cls-18" d="M644.71,813.34s13.35,10.65,16.6,21S666,866,672.25,865.29c0,0,13.46-32.42-1.67-50.76C654.53,795.08,644.71,813.34,644.71,813.34Z" transform="translate(-120.48 -305.24)"/><path class="cls-16" d="M499.36,1137.49c-6.44-27,15.46-79.38,38.32-122.75,20.75-39.31,42.28-71.2,44.21-70,54.71,32.47,59.65,5.47,59.65,5.47h0s49.7,6.6,63.77,30.82c17.45,30.06,36.31,114,55,129.93-2.88,8.8-1.64,13.49,1.4,24.4q1,3.51,2.17,6.66a128.68,128.68,0,0,0,9.4,19.31c-9.52,5.79-27.9,16.79-41.45,8.88-20.65-12.09-36.76-48.88-45.83-63.53l-.1-.17c-19.71,111.58,7.09,137-6.48,148.75-14.33,12.42-34.79-5.92-79.82,13.6-29.54,12.81-70.52,31.33-98.11,34.56-14.47,1.7-25.27-.82-28.79-10.59C462.52,1264.38,511.64,1189,499.36,1137.49Z" transform="translate(-120.48 -305.24)"/><path class="cls-20" d="M637.05,895.72s1.21,5.16,14.06,4.36c0,0,10.79-.66,10.46-6.34C661.57,893.74,651.11,889.7,637.05,895.72Z" transform="translate(-120.48 -305.24)"/><path class="cls-17" d="M472.75,1292.78c3.52,9.77,14.32,12.29,28.79,10.59,19.09-8.32,101.59-40.28,100.67-61.94-1.37-32.06-15.87-33.08-5.63-72.66,8.22-31.77-68-90.85-80.17-103.7-22.86,43.37-23.49,45.42-17,72.42C511.64,1189,462.52,1264.38,472.75,1292.78Z" transform="translate(-120.48 -305.24)"/><path class="cls-16" d="M463.42,1177.14c14.63-20.55,29.88-31.41,39.9-36.87-2.31-6,61.54-84.22,61.54-96.35,0-12.28,17-99.24,17-99.24s-53.2,3.28-71.61,29C487.24,1005.78,439.4,1129.41,463.42,1177.14Z" transform="translate(-120.48 -305.24)"/><path class="cls-15" d="M503.32,1140.27,609.63,1168l-10,17.91s-129.37-.91-136.23-8.78S503.32,1140.27,503.32,1140.27Z" transform="translate(-120.48 -305.24)"/><path class="cls-17" d="M686.05,1106.63c9.07,14.65,25.18,51.44,45.83,63.53,13.55,7.91,31.93-3.09,41.45-8.88a128.68,128.68,0,0,1-9.4-19.31c-7.6,1.74-16.87,4-22.85,5.77C729.44,1151.26,686.05,1106.63,686.05,1106.63Z" transform="translate(-120.48 -305.24)"/><path class="cls-15" d="M609.63,1168s33.38-9.45,41.33-7.24,35.2,20.25,31.37,25.15-27.84-2.94-38.88-1.46-19.58,6.94-27.54,5.76a92.54,92.54,0,0,1-16.26-4.3Z" transform="translate(-120.48 -305.24)"/><path class="cls-15" d="M609.63,1168s16.33-8.39,21-13.17a1.3,1.3,0,0,1,2,.23c1.25,2,2.41,5.76-3.32,9.53C621.07,1170,609.63,1168,609.63,1168Z" transform="translate(-120.48 -305.24)"/><path class="cls-21" d="M763.9,1215H608.15a12.42,12.42,0,0,1,12.42-12.41H763.9Z" transform="translate(-120.48 -305.24)"/><polygon class="cls-21" points="642.97 740.11 883.77 740.11 826.01 909.74 583.65 909.74 642.97 740.11"/><polygon class="cls-9" points="887.32 740.11 829.55 909.73 587.2 909.73 646.52 740.11 887.32 740.11"/><path class="cls-22" d="M878,1128.59c-1.49,6.48-8,11.74-14.44,11.74s-10.52-5.26-9-11.74,8-11.73,14.45-11.73S879.47,1122.11,878,1128.59Z" transform="translate(-120.48 -305.24)"/><path class="cls-23" d="M1007.8,1045.35,950,1215H789.54C895.85,1178.68,924.15,1068,928.9,1045.35Z" transform="translate(-120.48 -305.24)"/><path class="cls-5" d="M308.73,1734a6.22,6.22,0,0,0,6.17-5.06l30.25-171.42L388.65,1311,400.81,1242l-31-.89-5.38,40L326.7,1562.39l-22.37,166.7A4.36,4.36,0,0,0,308.73,1734Z" transform="translate(-120.48 -305.24)"/><path class="cls-2" d="M364.45,1281.14c20.07,8.86,24.2,29.81,24.2,29.81L400.81,1242l-31-.89Z" transform="translate(-120.48 -305.24)"/><path class="cls-5" d="M1079.41,1734a6.22,6.22,0,0,1-6.17-5.06L1043,1557.49,999.49,1311,987.33,1242l31-.89,5.38,40,37.74,281.25,22.38,166.7A4.36,4.36,0,0,1,1079.41,1734Z" transform="translate(-120.48 -305.24)"/><path class="cls-2" d="M1023.69,1281.14c-20.08,8.86-24.2,29.81-24.2,29.81L987.33,1242l31-.89Z" transform="translate(-120.48 -305.24)"/><rect class="cls-2" x="269.16" y="1214.94" width="831.26" height="54.13" rx="18.9" transform="translate(1249.09 2178.77) rotate(180)"/><rect class="cls-24" y="1428.6" width="2732.52" height="7.25" rx="3.1"/><path class="cls-15" d="M2134.22,850.6s-11.07-35.73-17.36-39.58-32.52-16.77-34.08-13.27,14.16,20.46,17.65,26.13,5.24,11.25,2.8,8.8-15.72-10.62-17.12-8.8,6.64,8.8,10.48,14.39,8,15,21.66,17.13S2134.22,850.6,2134.22,850.6Z" transform="translate(-120.48 -305.24)"/><path class="cls-15" d="M2538,1151.5s-3.32,32.28-7,38.38-19.16,25.62-25.76,29.45,4-25.71,2.68-31.46-5.43,10.49-8.35,10.87-2.16-14.23-2.26-19.55,14.17-18.44,19.2-29.77S2538,1151.5,2538,1151.5Z" transform="translate(-120.48 -305.24)"/><path class="cls-25" d="M2436.78,820.29S2409.93,952,2262.22,995.07c-46.11,13.44-150.86-138.36-150.86-138.36s3.69-14,26.76-10.78c0,0,102,67.52,114.83,74.86,11.4,6.51,86.33-83.67,120.49-98.22S2436.78,820.29,2436.78,820.29Z" transform="translate(-120.48 -305.24)"/><path class="cls-25" d="M2613.12,1648.46s18.33,16.73,14.75,28.61-20.11,19.8-22.35,34.32-11.17,22.45-19.21,22.45H2548s-5.92-10.22,8.38-13.3,19.7-20.15,18.8-36,1.34-37,1.34-37l30.39-7Z" transform="translate(-120.48 -305.24)"/><path class="cls-25" d="M2388.31,1691.71s3.29,38.06-4.75,42l-103-.21s0-11.88,16.54-14.52,45.59-12.32,50.5-33.89S2388.31,1691.71,2388.31,1691.71Z" transform="translate(-120.48 -305.24)"/><path class="cls-9" d="M2301.39,1154.12s5.43,66.71,11.81,146.9c8.68,108.93,19.11,242.73,20.14,268.08,1.79,44,8.95,114.43,8.95,114.43s17,16.72,50.95,9.67c0,0,30.27-100.51,38.92-206.85.13-1.74.27-3.5.4-5.25,8.05-108.26,20.56-336.23,20.56-336.23Z" transform="translate(-120.48 -305.24)"/><path class="cls-21" d="M2301.39,1154.12s5.43,66.71,11.81,146.9l119,185.33c.13-1.74.27-3.5.4-5.25,8.05-108.26,20.56-336.23,20.56-336.23Z" transform="translate(-120.48 -305.24)"/><path class="cls-9" d="M2326.19,1162s97.88,241.6,162.24,355.14,84.47,145.22,84.47,145.22,36.87-14.52,40.22-24.42c0,0-24.61-219.19-67.71-272.63-24.35-30.19-53-120.8-54.3-152.48s-8.72-94.4-8.72-94.4Z" transform="translate(-120.48 -305.24)"/><path class="cls-15" d="M2455,789.71s-66.23,32-104.41,20.1a90,90,0,0,1,25.85-20.68c-1.32-7.66-2.35-14.31-2.94-20a184.86,184.86,0,0,1-1.61-20.39l25.55-20.09,24.23-19.24C2419.73,763.54,2455,789.71,2455,789.71Z" transform="translate(-120.48 -305.24)"/><path class="cls-26" d="M2489.87,1130.84c.15,4.06-8.51,8.68-12.34,10.41-28.33,12.44-54.77,21.11-84.72,24-35.39,3.62-77.24-4.33-91.64-4a6,6,0,0,1-4-1.59c-1-.73-1.76-43.38-1-97,0-2.15,0-4.32.15-6.49v-.73c.29-21,1-42.94,2.05-64.92,2.06-48.29,5.89-94.85,12.34-120.59,7.78-30.36,25.41-50.46,41.42-65.07l13.2-11.56c13.22,2.6,27.17,1.88,41.12-4.92,15.28-7.36,31.72-15.32,34.36-13.3,20,14.6,33.48,47.42,40.68,89.36,0,.21.08.41.11.62a466.51,466.51,0,0,1,5.91,78.9c0,10.42-.29,21.11-.88,31.66-2.94,47.82-1,90.39,1,119.88.38,5.83.77,11.15,1.1,15.9C2489.28,1119.71,2489.72,1126.22,2489.87,1130.84Z" transform="translate(-120.48 -305.24)"/><path class="cls-25" d="M2487.59,1095.43c-109.77-126.74-41.67-218.86-41.67-218.86L2481.61,865a466.51,466.51,0,0,1,5.91,78.9c0,10.42-.29,21.11-.88,31.66C2483.7,1023.37,2485.67,1065.94,2487.59,1095.43Z" transform="translate(-120.48 -305.24)"/><path class="cls-27" d="M2422.08,730.14s-16.74,30.51-48.61,39a184.86,184.86,0,0,1-1.61-20.39l25.55-20.09Z" transform="translate(-120.48 -305.24)"/><path class="cls-15" d="M2360.21,747.91s63.17,10.34,69.1-28.5,18.08-63.66-22-71.91-50.21,5.42-55.39,17.91S2343.93,744.22,2360.21,747.91Z" transform="translate(-120.48 -305.24)"/><path class="cls-28" d="M2452.28,642.85c.57-.65,1.89-1.18,4.84-1.34a12,12,0,0,0-5.5-1.55c-.62-4.1-2.8-11.34-9.84-13.1a8.85,8.85,0,0,1,4.28,6.37c-8.16-8.38-25.65-14.48-74.06-10.66-63.81,5-42.78,45.89-34.52,50.76s29.05-8.48,44.44-7.26,18.32,23.46,23.54,26.51,3.17-2.34,10.24-5.53,7.73,8.51,5.69,16.12,7.67,17.65,7.67,17.65l9.81-10.56c9.81-10.57,19.05-55.31,14.59-64.85Z" transform="translate(-120.48 -305.24)"/><path class="cls-26" d="M2440.8,774.69s40,18.93,59.13,48c29.73,45.14,64.19,209.64,64.83,224.88s-25.15,122.78-25.15,122.78-26.16-1.73-32.9-14.93c0,0,5.22-110.5,1.91-117.6s-109-148.23-97.15-178.34S2440.8,774.69,2440.8,774.69Z" transform="translate(-120.48 -305.24)"/><rect class="cls-8" x="1806.2" y="659.87" width="207.54" height="56.93" rx="24.94"/><path class="cls-9" d="M2030.11,1006a3.14,3.14,0,0,1-2.71-1.55l-8.28-14.17a3.14,3.14,0,1,1,5.42-3.17l5.32,9.08,10-20.59a3.14,3.14,0,1,1,5.65,2.75l-12.58,25.88a3.15,3.15,0,0,1-2.71,1.77Z" transform="translate(-120.48 -305.24)"/><path class="cls-9" d="M2030.11,1013.3a19.52,19.52,0,1,1,19.52-19.52A19.54,19.54,0,0,1,2030.11,1013.3Zm0-36.74a17.23,17.23,0,1,0,17.23,17.22A17.23,17.23,0,0,0,2030.11,976.56Z" transform="translate(-120.48 -305.24)"/><path class="cls-13" d="M1140.54,817.59H972.07a40.36,40.36,0,0,0-40.25,40.24v63.73a40.05,40.05,0,0,0,10,26.48l-10,45.75,57.72-32h151a40.36,40.36,0,0,0,40.24-40.25V857.83A40.36,40.36,0,0,0,1140.54,817.59Z" transform="translate(-120.48 -305.24)"/><path class="cls-12" d="M1143.71,866.15H969.05a6.56,6.56,0,0,1-6.53-6.54h0a6.55,6.55,0,0,1,6.53-6.54h174.66a6.56,6.56,0,0,1,6.54,6.54h0A6.56,6.56,0,0,1,1143.71,866.15Z" transform="translate(-120.48 -305.24)"/><path class="cls-12" d="M1143.71,894.75H969.05a6.55,6.55,0,0,1-6.53-6.54h0a6.55,6.55,0,0,1,6.53-6.53h174.66a6.55,6.55,0,0,1,6.54,6.53h0A6.56,6.56,0,0,1,1143.71,894.75Z" transform="translate(-120.48 -305.24)"/><path class="cls-12" d="M1143.71,922.28H969.05a6.55,6.55,0,0,1-6.53-6.53h0a6.55,6.55,0,0,1,6.53-6.54h174.66a6.56,6.56,0,0,1,6.54,6.54h0A6.55,6.55,0,0,1,1143.71,922.28Z" transform="translate(-120.48 -305.24)"/></svg>