<svg id="OBJECTS" xmlns="http://www.w3.org/2000/svg" xmlns:xlink="http://www.w3.org/1999/xlink" viewBox="0 0 434.11 373.54"><defs><style>.cls-1{fill:url(#linear-gradient);}.cls-2{fill:#f0ebfc;}.cls-3{fill:#75bbf1;}.cls-4{fill:#1931b0;}.cls-5{fill:#efd3d0;}.cls-6{fill:#ff8ca2;}.cls-7{fill:#272727;}.cls-8{fill:#42679e;}.cls-9{fill:#e87e97;}.cls-10{fill:#385d89;}.cls-11{fill:none;stroke:#1931b0;stroke-miterlimit:10;}</style><linearGradient id="linear-gradient" x1="250" y1="119.93" x2="250" y2="374.83" gradientUnits="userSpaceOnUse"><stop offset="0" stop-color="#e8f3f7"/><stop offset="1" stop-color="#fff"/></linearGradient></defs><path class="cls-1" d="M83.13,381.26s-55.31-39.68-47.34-95.71,41.43-69.92,39-139.32S129.35,34.45,184.18,52.72s47.65,87.66,81.91,89.13,70.13-38,132.29-15.35,74.91,110.88,62.16,140.91S443,381.26,443,381.26Z" transform="translate(-35 -48.47)"/><ellipse class="cls-2" cx="218.29" cy="324.5" rx="139.17" ry="8.29"/><polygon class="cls-3" points="103.96 224.12 112.36 323.48 169.71 323.48 169.71 224.12 103.96 224.12"/><path class="cls-3" d="M214.93,279.28v85.1h11.71s7.81,7,11.32,7.8,107.74,0,107.74,0,16-5.07,14.83-18.34c.07-6.25-4.68-11.71-4.68-11.71s12.49-2,13.27-14.84c0-6.63-5.46-12.1-5.46-12.1s13.27-7.41,13.27-16.78-5.47-12.88-5.47-12.88,14.06-6.64,14.06-18.35-12.1-11.32-12.1-11.32H294.17l6.06-32.4s4.48-12.49,0-25-8.79-26.94-17-28.5-12.5.39-12.89,11.71-.39,28.5-.39,28.5S238,275,214.93,279.28Z" transform="translate(-35 -48.47)"/><path class="cls-4" d="M177.57,186.48s-5.64-4.38-15.66,1.15c-8.75,4.83-7.83,17.27-6.44,26.71s-12.09,10-8.52,19.69S165.36,251.3,182.69,245,199,228,193.8,222.86s-7.13-11-6.67-21.63S177.57,186.48,177.57,186.48Z" transform="translate(-35 -48.47)"/><path class="cls-5" d="M160.52,199.19s-.69,8.49,2.89,14,13.88,5.64,17.67-3.69c1.67-7,1.61-9.23,1.61-9.23a9.9,9.9,0,0,1-6.88-7.67S171.72,201.23,160.52,199.19Z" transform="translate(-35 -48.47)"/><path class="cls-5" d="M160.52,202.26a2.11,2.11,0,0,0-1.88-1c-1.3.05-2.84,3.79,2.56,6Z" transform="translate(-35 -48.47)"/><path class="cls-5" d="M182.3,202.26a2.13,2.13,0,0,1,1.89-1c1.3.05,2.83,3.79-2.57,6Z" transform="translate(-35 -48.47)"/><path class="cls-6" d="M167.62,220.53a44.43,44.43,0,0,0-9.16.95c-4.84,1-11,13.78-11,13.78s1.84,3.83,8.4,4.7l1.52-2.59v13.81s15.4,9,30.25,0v-15l1.8,4s5.2.07,7.53-3.4c0,0-3.91-10.59-8.58-13.53a24.32,24.32,0,0,0-12.58-2.73A52.51,52.51,0,0,1,167.62,220.53Z" transform="translate(-35 -48.47)"/><path class="cls-5" d="M167.62,216.45v4.08a4.57,4.57,0,0,0,4,3.71c3.43.35,4.2-3.28,4.2-3.28v-5.22A10.64,10.64,0,0,1,167.62,216.45Z" transform="translate(-35 -48.47)"/><path class="cls-5" d="M148.67,236.79l-4.26,11.86h8.41l3.05-8.69S151,239.12,148.67,236.79Z" transform="translate(-35 -48.47)"/><rect class="cls-7" x="119.66" y="191.54" width="35.11" height="19.34"/><path class="cls-5" d="M197,236.79l4.26,11.86h-8.4L189.77,240S195.25,239.55,197,236.79Z" transform="translate(-35 -48.47)"/><path class="cls-8" d="M186.55,267.41s-15.89-11.62-25.44-15.31-14.86-5.87-18.65-3.45-3.69,11.74,12.66,17.61A94.81,94.81,0,0,0,184.77,272Z" transform="translate(-35 -48.47)"/><path class="cls-7" d="M202.44,267.7l-15.89-.29L184.77,272s11.28.81,14.73-.58S202.44,267.7,202.44,267.7Z" transform="translate(-35 -48.47)"/><path class="cls-8" d="M157.11,267.41S173,255.79,182.56,252.1s14.85-5.87,18.65-3.45,3.68,11.74-12.67,17.61A94.78,94.78,0,0,1,158.9,272Z" transform="translate(-35 -48.47)"/><path class="cls-7" d="M141.22,267.7l15.89-.29L158.9,272s-11.29.81-14.74-.58S141.22,267.7,141.22,267.7Z" transform="translate(-35 -48.47)"/><path class="cls-5" d="M327.28,208.29l1.28-3.47s14.06,5.48,13.7-13c0,0-2.93,2.56-11.51,1.1,0,0-1.09-3.29-3.47-3.83s-4.56,3.65-1.64,7.85l-3.11,7.85S326,206.1,327.28,208.29Z" transform="translate(-35 -48.47)"/><path class="cls-6" d="M309.57,242.63s-.92-23.56,5.11-30.69,7.85-7.12,7.85-7.12,14.44,2.92,9.87,35.43C332.4,240.25,325.45,245,309.57,242.63Z" transform="translate(-35 -48.47)"/><path class="cls-9" d="M324.72,212.7s-5.11-2.37-6.94,2S323.08,235,326,237s16.26,4.39,16.26,4.39h6v-3.29l-15.88-6.76S329.84,220.55,324.72,212.7Z" transform="translate(-35 -48.47)"/><path class="cls-8" d="M309.57,242.63s-1.28,9.31,3.83,12.05,30.87.92,30.87.92l-7.13,30h4.2l18.27-42.26-27.21-3S324.91,245,309.57,242.63Z" transform="translate(-35 -48.47)"/><polygon class="cls-10" points="330.27 237.08 320.68 203.9 324.61 194.82 330.27 194.82 335.02 237.08 330.27 237.08"/><polygon class="cls-7" points="302.14 237.08 300.87 241.46 311.27 246.94 306.34 237.08 302.14 237.08"/><polygon class="cls-7" points="330.23 237.08 328.95 241.46 339.37 246.94 334.43 237.08 330.23 237.08"/><path class="cls-5" d="M348.28,238.5l4-.89c1.78-.41,7.68,3.2,4.73,3.58-.89.12-8.68.19-8.68.19Z" transform="translate(-35 -48.47)"/><path class="cls-4" d="M346.64,187.47a5.19,5.19,0,0,0,1.64-5.11,3.75,3.75,0,0,0-3.47-3s-.29-4.59-4.56-5a5,5,0,0,0-4.57,1.55s-3-3.56-7.3-2.83-4.84,3.66-4.84,3.66-5.39-.83-7.13,3a8.38,8.38,0,0,0,0,7,8.72,8.72,0,0,0-1.64,5.57c.37,2.92,3.47,5.12,3.47,5.12s.4,4.93,5.36,4.69l2-5.15c-2.92-4.2-.73-8.4,1.64-7.85s3.47,3.83,3.47,3.83c8.58,1.46,11.51-1.1,11.51-1.1a29,29,0,0,1-.09,3h0a4.32,4.32,0,0,0,4.83-2.56C348.38,189,346.64,187.47,346.64,187.47Z" transform="translate(-35 -48.47)"/><rect class="cls-7" x="301.69" y="192.91" width="41.09" height="1.92"/><polygon class="cls-7" points="320.68 193.09 324.61 171.81 346.25 171.81 342.78 192.91 320.68 193.09"/><path class="cls-2" d="M239.91,416.46c0,3.06-33.3,5.55-74.37,5.55s-74.37-2.49-74.37-5.55,33.29-5.56,74.37-5.56S239.91,413.39,239.91,416.46Z" transform="translate(-35 -48.47)"/><path class="cls-6" d="M159.84,396.27s19.58-14,27.94-10.77,12.29,7.3,13.82,10.77,2.62,14.06-23.68,18.81S148,416.91,148,416.91,147.67,403.54,159.84,396.27Z" transform="translate(-35 -48.47)"/><path class="cls-4" d="M191.63,381.26l1.63-1.79a22.62,22.62,0,0,1-.55-5.66c.18-2.56,1.46-5.12,3.47-4.2s2.56,2.92,2,5.47c0,0,12.79,2.74,16.26-2.55a21.58,21.58,0,0,1,.91,4.75h0s2.92-7.49-.91-12.79-13.52-7.67-21-2.92-6.73,15.27-1.81,19.69Z" transform="translate(-35 -48.47)"/><path class="cls-5" d="M214.45,372.53s2.19,6.39,0,11.32-8.22,7.49-17.9,3.65a21.57,21.57,0,0,0-1.1,4.2c-.36,2.38-7.85,2.56-7.67-6.2l5.48-6a22.62,22.62,0,0,1-.55-5.66c.18-2.56,1.46-5.12,3.47-4.2s2.56,2.92,2,5.47C198.19,375.08,211,377.82,214.45,372.53Z" transform="translate(-35 -48.47)"/><circle class="cls-4" cx="163.65" cy="310.27" r="5.94"/><path class="cls-9" d="M175.11,393.1s3.62,4.18,12.67,5.13a20.76,20.76,0,0,0-2.33-8.21C183.4,386.59,177.78,387.42,175.11,393.1Z" transform="translate(-35 -48.47)"/><path class="cls-9" d="M201.6,396.27s2.34,4.29,2.34,6.35v2.05h-3.37A12.35,12.35,0,0,0,201.6,396.27Z" transform="translate(-35 -48.47)"/><path class="cls-5" d="M175.88,393.82s1.9,18.66,6.15,23.18c2.19,1.64,26.16.8,26.16.8v-4.5l-18.9-4L187,398.14S180.43,397.22,175.88,393.82Z" transform="translate(-35 -48.47)"/><polygon class="cls-7" points="177.47 363.04 186.69 352.94 193.79 352.94 185.63 363.04 177.47 363.04"/><polygon class="cls-5" points="168.26 356.2 168.94 361.41 187.98 365.79 187.98 368.67 161.07 368.67 159.71 361.23 165.57 356.2 168.26 356.2"/><path class="cls-5" d="M208.19,414s2.74-3,5.07-3.84,3.16.75,3.16.75,4.1-3.76,5.47-3.63,8.22,10-13.7,10.53Z" transform="translate(-35 -48.47)"/><path class="cls-5" d="M223,414.81a27.5,27.5,0,0,1,5.76-2.28c2.19-.39,6.57,3.51,5.75,4.61H223Z" transform="translate(-35 -48.47)"/><path class="cls-8" d="M148,416.91H100.66L86.78,369.42l4.39-1.09,18.08,31.05,35.61-1.15s8.72-4.13,13.95-1.31C158.81,396.92,148.88,402.71,148,416.91Z" transform="translate(-35 -48.47)"/><polygon class="cls-10" points="91.05 314.74 71.01 345.35 74.25 350.91 85.21 350.55 95.43 314.74 91.05 314.74"/><polygon class="cls-7" points="56.16 319.86 54.34 314.74 39.73 316.2 51.78 320.95 56.16 319.86"/><polygon class="cls-7" points="95.43 314.74 96.34 309.08 84 303.79 91.05 314.74 95.43 314.74"/><circle class="cls-11" cx="74.62" cy="153.66" r="3.61"/><circle class="cls-11" cx="363.39" cy="282.42" r="3.61"/><circle class="cls-11" cx="25.5" cy="257.92" r="3.61"/><circle class="cls-11" cx="192.81" cy="81.42" r="3.61"/><circle class="cls-11" cx="99.96" cy="45.42" r="3.61"/><circle class="cls-11" cx="387.85" cy="74.2" r="3.61"/><circle class="cls-11" cx="430" cy="167.27" r="3.61"/><line class="cls-11" x1="108" y1="93.54" x2="108" y2="104.53"/><line class="cls-11" x1="102.51" y1="99.04" x2="113.49" y2="99.04"/><line class="cls-11" x1="426.39" y1="273.31" x2="426.39" y2="284.3"/><line class="cls-11" x1="420.9" y1="278.81" x2="431.88" y2="278.81"/><line class="cls-11" x1="378.75" y1="154.33" x2="378.75" y2="165.32"/><line class="cls-11" x1="373.25" y1="159.82" x2="384.24" y2="159.82"/><line class="cls-11" x1="307.26" y1="65.09" x2="307.26" y2="76.08"/><line class="cls-11" x1="301.77" y1="70.59" x2="312.76" y2="70.59"/><line class="cls-11" x1="5.49" y1="160.9" x2="5.49" y2="171.89"/><line class="cls-11" y1="166.39" x2="10.99" y2="166.39"/></svg>