<svg id="Layer_1" data-name="Layer 1" xmlns="http://www.w3.org/2000/svg" viewBox="0 0 1319.4 1319.4"><defs><style>.cls-1{fill:#dbdbdb;}.cls-2{fill:#a8a8a8;}.cls-3{fill:#babab9;}</style></defs><rect class="cls-1" width="1319.4" height="1319.4"/><path class="cls-2" d="M3206.94,1389.34a27.55,27.55,0,0,1-5.92,7.72C3205.65,1389.21,3209.36,1384.73,3206.94,1389.34Z" transform="translate(-2308.88 -798.79)"/><path class="cls-2" d="M2687.1,1397.06a27.55,27.55,0,0,1-5.92-7.72C2678.76,1384.73,2682.47,1389.21,2687.1,1397.06Z" transform="translate(-2308.88 -798.79)"/><path class="cls-3" d="M3489.43,2103.78c-11.14-22.53-91.62-80.58-135.16-93.78-41.54-12.58-82.6-26.9-116.87-43.11l.52-.43-5.25-7.88c1.69-1.62,2-2.66.8-3-12.83-3.21-33.82-121.67-33.82-121.67a16,16,0,0,0-.17,2.19v-2.19c-21.11-4.94-40.94-9.27-61.31-13-6.16-40.86-11.14-85.66-9.86-105,21-24.69,39.8-51,46.27-71.78,15.43-49.64,20.82-78,20.82-78s13.89,0,23.16-11.48,11.58-84.93,18.53-105.59c5.08-15.1,8.9-37.56,1.55-47.65.72-.4,1.42-.78,2.1-1.12,17.44-8.73,29-63.29,29-215.77,0-158.39-63.7-160.68-63.7-160.68v-20.66s-75.4,29.84-70.52,0-65.76-57.39-65.76-57.39l-19.46,2.3s-17.06,0-104.66-13.77S2904,954.9,2850.26,954.9s-56.12,20.66-56.12,20.66-34.16,13.78-92.73,64.27-56.13,218.07-48.81,229.55-9.76,66.56,0,82.63c2.95,4.86,10.08,17.69,18.59,33.22-12.78.71-26.14,11.11-22.68,52.29,4.64,55.09,10.26,12.43,30.12,114.77,11.59,59.68,32.45,13.77,32.45,13.77s19.41,95,65.81,163.1c.14,23.74.54,61.35,1.6,91.59q-29.62,5.63-59.29,13.19v2.52a10.18,10.18,0,0,0-.28-1.42s-20.21,118.69-33.14,122c-1.79.47-.34,2.33,3.62,5.22l-14.93,11.32a121.36,121.36,0,0,1-21.5,13l-39.47,18.63-32.35,8.38a165.34,165.34,0,0,0-73.09,40.81l-66.35,63.73H3495.44S3495.82,2116.7,3489.43,2103.78Zm-776.82-642.17c.21.38.4.74.59,1.1l.2,2.35S2713.12,1463.8,2712.61,1461.61Z" transform="translate(-2308.88 -798.79)"/></svg>